<svg xmlns="http://www.w3.org/2000/svg" width="200" height="240.246" viewBox="0 0 200 240.246"><g transform="translate(939 -4683.877)"><ellipse cx="100" cy="15" rx="100" ry="15" transform="translate(-939 4894.123)" opacity="0.15"/><path d="M76.48,84.03c-1.054-16.645,2.865-38.97,18.1-48.646,14.2-9.019,22.432-8.925,29.056-14.149s6.434-6.936,6.434-6.936l.29.051c-5.172-1.964-.819-10,1.411-11.868C134.063.564,141.788-1.384,148.1,1.362s7.762,6.609,7.262,12.333c-.248,2.87-2.314,3.89-4.8,4.116,0,0-.244,2.757,5.953,8.853s18.575,26.11,21.732,36.437c3.56,11.641-2.212,25.936-7.415,36.231-2.851,5.642-6.714,11.452-12.071,14.982" transform="translate(-941.68 4683.877)" fill="#afc90c" fill-rule="evenodd"/><path d="M82.664,53.591c.912-9.035,6.117-19.021,14.864-21.985,13.154-4.455,22.3-.831,25.031,6.027S121.2,54.2,119.35,56.985s-4.819,3.642-7.136,4c-3.731.583-7.549.791-11.306,1.136-4.792.441-10.15,1.616-14.78-.153A5.659,5.659,0,0,1,83.281,59.9a6.192,6.192,0,0,1-.76-3.325,27.766,27.766,0,0,1,.143-2.983" transform="translate(-940.093 4691.462)" fill="#fefefe" fill-rule="evenodd"/><path d="M146.688,78.454c-.985-1.017-1.9-2.108-2.834-3.146a92.49,92.49,0,0,0-7.609-7.294c-8.619-7.669-7.431-15.234-5.594-19.6s3.479-7.756,6.976-8.586,9.448,3.761,13.667,7.13,10.405,9.154,9.338,20.7c-.426,4.617-1.312,9.711-4.488,13.292a4.252,4.252,0,0,1-1.979,1.414,4,4,0,0,1-2.441-.291,14.392,14.392,0,0,1-5.034-3.617" transform="translate(-928.114 4694.043)" fill="#fefefe" fill-rule="evenodd"/><path d="M103.236,44.789a3.341,3.341,0,1,0,2.218,4.171,3.346,3.346,0,0,0-2.218-4.171" transform="translate(-935.898 4695.299)" fill="#9c9c9c" fill-rule="evenodd"/><path d="M141.151,54.831a3.463,3.463,0,1,0,2.3,4.325,3.47,3.47,0,0,0-2.3-4.325" transform="translate(-926.238 4697.867)" fill="#9c9c9c" fill-rule="evenodd"/><path d="M165.766,213.66H50.756a7.841,7.841,0,0,1-7.82-7.815V69.075a7.841,7.841,0,0,1,7.82-7.815h115.01a7.84,7.84,0,0,1,7.819,7.815v136.77a7.84,7.84,0,0,1-7.819,7.815" transform="translate(-950.221 4699.551)" fill="#f5f5f5" fill-rule="evenodd"/><path d="M154.577,193.934H56.834a3.919,3.919,0,0,1-3.909-3.908V76.7a3.919,3.919,0,0,1,3.909-3.908h97.743a3.919,3.919,0,0,1,3.91,3.908V190.025a3.919,3.919,0,0,1-3.91,3.908" transform="translate(-947.666 4702.334)" fill="#fefefe" fill-rule="evenodd"/><path d="M45.455,73.11s-5.692,1.245-5.738,5.212a6.387,6.387,0,0,0,.549,2.866l.2.371s-.794.717.782,4.785,1.877,5.838-1.066,8.525c-5.1-1.427-7.194,2.411-7.085,5.5a4.888,4.888,0,0,0,5.4,4.788l.215-.018a3.985,3.985,0,0,0-2.532,5.917v.168a5.506,5.506,0,0,0,.137,4.975,3.973,3.973,0,0,0,.713.822l-.534-.04a3.559,3.559,0,0,0-.837,2.264c-.2,2.293.873,3.143,1.069,3.313l.145.113a5.925,5.925,0,0,0,1.6,5.594c2.321,2.146,5.809,1.315,7.775.017.219-.146,4.181-2.79,3.21-6.576a6.058,6.058,0,0,0-4.982-4.138h0a4.756,4.756,0,0,0,1.709-1.573c1.177-1.851.943-4.668-.728-6.884Z" transform="translate(-952.739 4702.582)" fill="#afc90c" fill-rule="evenodd"/><path d="M147.848,99.493s5.692,1.245,5.738,5.212a6.366,6.366,0,0,1-.55,2.866l-.2.372s.794.716-.782,4.784-1.877,5.838,1.066,8.526c5.1-1.428,7.194,2.41,7.085,5.5a4.888,4.888,0,0,1-5.4,4.788l-.215-.018a3.985,3.985,0,0,1,2.532,5.917v.168a5.506,5.506,0,0,1-.137,4.975,3.973,3.973,0,0,1-.713.822l.534-.04a3.56,3.56,0,0,1,.837,2.265c.2,2.291-.873,3.142-1.069,3.311l-.145.113a5.922,5.922,0,0,1-1.6,5.594c-2.32,2.146-5.808,1.315-7.774.017-.219-.146-4.18-2.789-3.21-6.576a6.058,6.058,0,0,1,4.982-4.138h0a4.757,4.757,0,0,1-1.709-1.573c-1.177-1.851-.943-4.668.728-6.884Z" transform="translate(-924.443 4709.333)" fill="#afc90c" fill-rule="evenodd"/><g transform="translate(-870.991 4805.128)"><path d="M0,1H60V61H0Z" transform="translate(0 -1)" fill="none" fill-rule="evenodd"/><path d="M37.936,31.428,50.665,44.154a6,6,0,0,1-8.484,8.487L29.452,39.912Zm7.35-28.563-7.35,7.35,2.121,6.36L46.423,18.7l7.35-7.347a12,12,0,0,1-14.694,14.7L14.6,50.52a6,6,0,1,1-8.484-8.487L30.589,17.565a12,12,0,0,1,14.7-14.7ZM7.558,46.08a3,3,0,1,0,3-3,3,3,0,0,0-3,3ZM5.257,3.339,14.6,8.091l1.3,5.892,7.011,7.011-3.894,3.894L12.01,17.877l-5.892-1.3L1.366,7.233Z" transform="translate(2.732 1.911)" fill="#a4a4a4" fill-rule="evenodd"/></g></g></svg>