<svg xmlns="http://www.w3.org/2000/svg" width="50" height="50" viewBox="0 0 50 50"><g transform="translate(0.224)"><rect width="50" height="50" transform="translate(-0.224)" fill="#fff"/><g transform="translate(8.491 5.66)"><path d="M146.5,145.454c-.84-2.519-4.013-3.077-4.915-2.541-1.032.614,1.253,4.527-1.2,11.782a37.167,37.167,0,0,0-2.151,8.389c-.735,9.575,8.453,14.416,14.533,11.841l8.938-3.849" transform="translate(-138.189 -137.874)" fill="none" stroke="#adbf00" stroke-miterlimit="10" stroke-width="1.25"/><path d="M170.527,150.861V138.087a2.55,2.55,0,0,0-2.122-2.555c-2.726-.256-5.134-.387-7.551-.387s-4.834.131-7.587.39a2.544,2.544,0,0,0-2.1,2.551v27.447a2.546,2.546,0,0,0,2.122,2.554c2.727.261,5.329.386,7.959.386a62.1,62.1,0,0,0,6.884-.332c1.231-.187,2.567-1.025,2.567-2.237" transform="translate(-142.861 -135.145)" fill="none" stroke="#adbf00" stroke-miterlimit="10" stroke-width="1.25"/><path d="M184.229,168.443a2.092,2.092,0,0,0-1.965-1.327,2,2,0,0,0-.791.157l-2.267.992a2.2,2.2,0,0,0-1.132,2.848,2.1,2.1,0,0,0,1.964,1.328,1.99,1.99,0,0,0,.792-.16l2.266-.991A2.2,2.2,0,0,0,184.229,168.443Z" transform="translate(-152.487 -146.653)" fill="none" stroke="#adbf00" stroke-miterlimit="10" stroke-width="1.25"/><path d="M181.035,180.366l2.051-.9a1.991,1.991,0,0,0,1.023-2.574,1.891,1.891,0,0,0-1.774-1.2,1.827,1.827,0,0,0-.717.143l-2.049.9a1.994,1.994,0,0,0-1.023,2.576,1.893,1.893,0,0,0,1.776,1.2A1.779,1.779,0,0,0,181.035,180.366Z" transform="translate(-152.662 -149.741)" fill="none" stroke="#adbf00" stroke-miterlimit="10" stroke-width="1.25"/><path d="M178.089,162.731a2.1,2.1,0,0,0,1.964,1.329,2,2,0,0,0,.792-.159l1.537-.7a2.2,2.2,0,0,0,1.133-2.848,2.1,2.1,0,0,0-1.964-1.329,2,2,0,0,0-.792.159l-1.536.7A2.2,2.2,0,0,0,178.089,162.731Z" transform="translate(-152.492 -143.739)" fill="none" stroke="#adbf00" stroke-miterlimit="10" stroke-width="1.25"/><line x2="4.629" transform="translate(15.672 30.23)" fill="none" stroke="#adbf00" stroke-linecap="round" stroke-miterlimit="10" stroke-width="1.25"/><line x2="1.6" transform="translate(17.186 2.625)" fill="none" stroke="#adbf00" stroke-linecap="round" stroke-miterlimit="10" stroke-width="1.25"/><line x2="17.958" transform="translate(8.309 27.447)" fill="none" stroke="#adbf00" stroke-miterlimit="10" stroke-width="1.25"/><line x2="19.356" transform="translate(8.309 5.061)" fill="none" stroke="#adbf00" stroke-miterlimit="10" stroke-width="1.25"/><path d="M181.412,152.292l4.138-1.77a2.49,2.49,0,0,0,1.279-3.218,2.125,2.125,0,0,0-2.8-1.322c-.373.107-2.124.726-2.616.933" transform="translate(-153.747 -139)" fill="none" stroke="#adbf00" stroke-miterlimit="10" stroke-width="1.25"/><path d="M167.593,156.132a3.276,3.276,0,0,0-3.275-3.276,2.9,2.9,0,0,0-2.937,2.811c0,3.324,5.942,1.173,5.942,4.823,0,1.461-1.475,2.469-3,2.469a3.275,3.275,0,0,1-3.276-3.276" transform="translate(-146.415 -141.52)" fill="none" stroke="#adbf00" stroke-miterlimit="10" stroke-width="1.25"/><line y1="1.743" transform="translate(17.903 9.594)" fill="none" stroke="#adbf00" stroke-miterlimit="10" stroke-width="1.25"/><line y1="1.686" transform="translate(17.903 21.439)" fill="none" stroke="#adbf00" stroke-miterlimit="10" stroke-width="1.25"/></g></g></svg>