<svg xmlns="http://www.w3.org/2000/svg" width="141.576" height="150" viewBox="0 0 141.576 150"><g transform="translate(-295.8 -165)"><path d="M328.692,351.17H327.9V351h1.979l1.414,4.693L332.706,351h1.922v.17h-.792v5.993h.792v.17h-2.6v-.17h.792v-5.824l-1.809,5.993h-.226l-1.866-6.05v5.88h.792v.17H327.9v-.17h.792Z" transform="translate(-13.951 -80.836)" fill="#3c3c3b"/><g transform="translate(322.148 270.051)"><path d="M343.927,351.7a5.235,5.235,0,0,0-.283,2.375,4.39,4.39,0,0,0,.4,2.488,1.5,1.5,0,0,0,1.187.565,1.356,1.356,0,0,0,1.244-.678,5.091,5.091,0,0,0,.283-2.318,5.366,5.366,0,0,0-.339-2.544,1.5,1.5,0,0,0-1.187-.565,1.435,1.435,0,0,0-1.3.678m3.958,2.431a3.65,3.65,0,0,1-.9,2.375,2.387,2.387,0,0,1-1.809.848,3.139,3.139,0,0,1-2.77-3.279,3.1,3.1,0,0,1,2.77-3.279c1.527,0,2.714,1.527,2.714,3.336" transform="translate(-342.4 -350.8)" fill="#3c3c3b"/><path d="M357.031,357.163c.622,0,.9-.057,1.131-.283a1.5,1.5,0,0,0,.4-1.244c0-1.131-.4-1.527-1.583-1.527h-.565v3h.622Zm-.565-3.223h.509c1.018,0,1.414-.4,1.414-1.357a1.6,1.6,0,0,0-.4-1.131c-.226-.226-.509-.283-1.3-.283h-.283v2.77Zm-1.018-2.77h-.792V351h2.092a3.076,3.076,0,0,1,2.092.452,1.224,1.224,0,0,1,.565,1.074c0,.792-.565,1.244-1.64,1.47,1.244.113,1.922.678,1.922,1.64a1.487,1.487,0,0,1-.678,1.244c-.452.339-.9.4-2.149.4H354.6v-.17h.792V351.17Z" transform="translate(-347.702 -350.887)" fill="#3c3c3b"/></g><path d="M367.092,351.17H366.3V351h2.6v.17h-.792v5.993h.792v.17h-2.6v-.17h.792Z" transform="translate(-30.639 -80.836)" fill="#3c3c3b"/><g transform="translate(339.844 270.164)"><path d="M374.492,351.17H373.7V351h2.6v.17h-.792v5.937h1.131c1.131.057,1.47-.283,1.866-1.753h.113l-.17,1.979H373.7v-.17h.792V351.17Z" transform="translate(-373.7 -351)" fill="#3c3c3b"/></g><path d="M385.835,351.17H385.1V351h2.544v.17h-.792v5.993h.792v.17H385.1v-.17h.735Z" transform="translate(-38.81 -80.836)" fill="#3c3c3b"/><g transform="translate(350.474 270.164)"><path d="M393.292,351.17H392.5V351h4.58l.057,1.753h-.113c-.283-1.3-.678-1.583-1.979-1.527h-.735v2.827c1.187,0,1.357-.17,1.357-1.187h.113v2.6h-.113c-.057-.565-.057-.678-.17-.848-.113-.283-.4-.4-.9-.4h-.283v2.94H395.5c1.018.057,1.357-.283,1.753-1.809h.113l-.17,1.979H392.5v-.17h.792V351.17Z" transform="translate(-392.5 -351)" fill="#3c3c3b"/><path d="M406.049,353.827a2.189,2.189,0,0,0,1.244-.226,1.5,1.5,0,0,0,0-2.148c-.283-.226-.509-.226-1.187-.226h-.4v2.657h.339Zm-1.357-2.657H403.9V351h2.205c1.244,0,1.583.057,2.035.339a1.193,1.193,0,0,1,.622,1.131c0,.848-.735,1.47-1.922,1.527a2.035,2.035,0,0,1,1.47.848,1.779,1.779,0,0,1,.283,1.131v.509c0,.509.17.735.452.735a.7.7,0,0,0,.4-.113l.057.17a1.505,1.505,0,0,1-.678.17,1.442,1.442,0,0,1-1.131-.622,2.637,2.637,0,0,1-.226-1.244,1.681,1.681,0,0,0-.226-1.074c-.226-.283-.509-.339-1.187-.339h-.283v3.11h.792v.17h-2.6v-.17h.792V351.17Z" transform="translate(-397.454 -351)" fill="#3c3c3b"/><path d="M424.318,357.163a3.183,3.183,0,0,0,1.244-.113,1.487,1.487,0,0,0,.848-.9,8.613,8.613,0,0,0,.17-2.092c0-1.414-.113-1.979-.452-2.318a1.7,1.7,0,0,0-.961-.452h-1.3v5.937h.452Zm-1.47-5.993h-.792V351h2.148c1.357,0,1.866.113,2.431.622a3.1,3.1,0,0,1,1.074,2.488,3.249,3.249,0,0,1-1.3,2.714,3,3,0,0,1-2.148.509H422v-.17h.792V351.17Z" transform="translate(-405.321 -351)" fill="#3c3c3b"/><path d="M435.592,351.17H434.8V351h4.58l.057,1.753h-.113c-.283-1.3-.678-1.583-1.979-1.527h-.735v2.827c1.187,0,1.357-.17,1.414-1.187h.113v2.6h-.113c-.057-.565-.057-.678-.17-.848-.113-.283-.4-.4-.9-.4h-.339v2.94H437.8c1.018.057,1.357-.283,1.753-1.809h.113l-.17,1.979H434.8v-.17h.792V351.17Z" transform="translate(-410.884 -351)" fill="#3c3c3b"/><path d="M452.592,351.17V351h2.6v.17H454.4v4.749a2.208,2.208,0,0,1-.283,1.357,1.589,1.589,0,0,1-1.357.792.858.858,0,0,1-.961-.792.507.507,0,0,1,.509-.509.486.486,0,0,1,.452.452.609.609,0,0,1-.113.4l-.057.057c0,.113.113.17.226.17a.536.536,0,0,0,.509-.452,3.337,3.337,0,0,0,.113-1.131v-5.145h-.848Z" transform="translate(-418.272 -351)" fill="#3c3c3b"/></g><path d="M461.762,352.47l-.9,2.6h1.753ZM460.8,355.3l-.622,1.866h.848v.17H459.5v-.17h.452L462.1,351h.283l2.035,6.163h.678v.17h-2.544v-.17h.848l-.622-1.866Z" transform="translate(-71.144 -80.836)" fill="#3c3c3b"/><g transform="translate(395.366 270.164)"><path d="M474.049,353.827a2.188,2.188,0,0,0,1.244-.226,1.5,1.5,0,0,0,0-2.148c-.283-.226-.509-.226-1.187-.226h-.4v2.657h.339Zm-1.357-2.657H471.9V351h2.205c1.244,0,1.583.057,2.035.339a1.193,1.193,0,0,1,.622,1.131c0,.848-.735,1.47-1.922,1.527a2.035,2.035,0,0,1,1.47.848,1.779,1.779,0,0,1,.283,1.131v.509c0,.509.17.735.452.735a.7.7,0,0,0,.4-.113l.057.17a1.506,1.506,0,0,1-.678.17,1.442,1.442,0,0,1-1.131-.622,2.637,2.637,0,0,1-.226-1.244,1.681,1.681,0,0,0-.226-1.074c-.226-.283-.509-.339-1.187-.339h-.283v3.11h.792v.17h-2.6v-.17h.792V351.17Z" transform="translate(-471.9 -351)" fill="#3c3c3b"/><path d="M486.718,357.163a3.183,3.183,0,0,0,1.244-.113,1.488,1.488,0,0,0,.848-.9,8.613,8.613,0,0,0,.17-2.092c0-1.414-.113-1.979-.452-2.318a1.7,1.7,0,0,0-.961-.452h-1.3v5.937h.452Zm-1.47-5.993h-.792V351h2.148c1.357,0,1.866.113,2.431.622a3.1,3.1,0,0,1,1.074,2.488,3.249,3.249,0,0,1-1.3,2.714,3,3,0,0,1-2.148.509H484.4v-.17h.792V351.17Z" transform="translate(-477.333 -351)" fill="#3c3c3b"/></g><path d="M497.992,351.17H497.2V351h2.6v.17h-.792v5.993h.792v.17h-2.6v-.17h.792Z" transform="translate(-87.529 -80.836)" fill="#3c3c3b"/><g transform="translate(297.44 173.198)"><path d="M505.292,351.17H504.5V351h1.979l1.866,2.77c.622.961.792,1.187,1.074,1.7v-4.3h-.792V351h1.809v.17h-.792v6.163h-.226l-3.9-5.937v5.767h.792v.17H504.5v-.17h.792Z" transform="translate(-388.141 -254.034)" fill="#3c3c3b"/><path d="M312.235,255.07H311.5v-.17h4.127l.057,1.583h-.113c-.283-1.131-.622-1.47-1.753-1.413h-.678v2.544c1.074,0,1.244-.113,1.244-1.074h.113v2.375h-.113a4.011,4.011,0,0,0-.113-.792c-.113-.226-.339-.339-.848-.339h-.283v2.657h1.074c.9.057,1.187-.283,1.583-1.583h.113l-.17,1.753H311.5v-.17h.735Z" transform="translate(-304.263 -212.269)" fill="#3c3c3b"/><path d="M327.366,256.227h-.113a1.145,1.145,0,0,0-.339-.792,1.284,1.284,0,0,0-1.018-.509,1.078,1.078,0,0,0-1.131,1.018.738.738,0,0,0,.4.678,4.065,4.065,0,0,0,.961.339,2.432,2.432,0,0,1,1.074.452,1.579,1.579,0,0,1,.509,1.244,1.763,1.763,0,0,1-1.7,1.922,2.108,2.108,0,0,1-1.3-.509l-.339.4h-.17v-1.753h.113a2.4,2.4,0,0,0,.339,1.018,1.513,1.513,0,0,0,1.3.678,1.187,1.187,0,0,0,1.244-1.244.951.951,0,0,0-.4-.848,3.2,3.2,0,0,0-.961-.339,2.339,2.339,0,0,1-1.187-.509,1.283,1.283,0,0,1-.4-1.018,1.659,1.659,0,0,1,1.583-1.753,2.153,2.153,0,0,1,1.074.339l.283-.339h.113v1.527Z" transform="translate(-309.782 -212.182)" fill="#3c3c3b"/><path d="M336.422,255.07h-.283c-.565,0-.735.057-1.018.339a2.263,2.263,0,0,0-.509,1.3H334.5l.057-1.809h4.636l.057,1.809h-.113a2.992,2.992,0,0,0-.509-1.3,1,1,0,0,0-1.018-.339h-.283v5.371h.792v.17h-2.544v-.17h.792V255.07Z" transform="translate(-314.259 -212.269)" fill="#3c3c3b"/><path d="M347.618,263.809a.509.509,0,1,1-.509-.509.6.6,0,0,1,.509.509" transform="translate(-319.517 -215.92)" fill="#3c3c3b"/><path d="M492.079,260.741H488.8v-.4c1.3-1.3,1.7-1.753,1.979-2.092a2.057,2.057,0,0,0,.565-1.413c0-.9-.452-1.47-1.074-1.47a1,1,0,0,0-1.018.9c0,.113.057.226.113.226h.113a.427.427,0,0,1,.226-.057.437.437,0,0,1,.452.4.4.4,0,0,1-.452.4.716.716,0,0,1-.622-.792,1.372,1.372,0,0,1,1.527-1.244,1.438,1.438,0,0,1,1.583,1.357,2.335,2.335,0,0,1-.792,1.527l-2.035,2.035h1.866c.622,0,.622,0,.735-.848h.17Z" transform="translate(-381.318 -212.399)" fill="#3c3c3b"/><path d="M500.774,255.759a6.268,6.268,0,0,0-.17,2.205,5.751,5.751,0,0,0,.226,2.262.784.784,0,0,0,.678.4.711.711,0,0,0,.678-.509,7.935,7.935,0,0,0,.17-2.148,6.124,6.124,0,0,0-.226-2.318.784.784,0,0,0-.678-.4.9.9,0,0,0-.678.509m1.866,0a3.48,3.48,0,0,1,.678,2.262c0,1.527-.792,2.827-1.809,2.827s-1.809-1.3-1.809-2.827c0-1.583.792-2.827,1.809-2.827a1.311,1.311,0,0,1,1.131.565" transform="translate(-386.055 -212.393)" fill="#3c3c3b"/><path d="M511.848,255.509c0-.17,0-.226-.113-.226H511v-.17l1.64-.113v5.428h.848v.17H511v-.17h.848Z" transform="translate(-390.966 -212.312)" fill="#3c3c3b"/><path d="M520.848,256.966a5.209,5.209,0,0,0,.113,1.3.735.735,0,0,0,.678.452c.679,0,1.018-.565,1.018-1.753,0-1.244-.283-1.753-.9-1.753s-.9.565-.9,1.753m-.509,3.9c1.3-.17,1.922-.9,2.205-2.431a1.094,1.094,0,0,1-.9.452,1.756,1.756,0,0,1-1.64-1.809,1.945,1.945,0,0,1,1.866-1.979c1.018,0,1.753.961,1.753,2.262a3.713,3.713,0,0,1-1.131,2.714,3.5,3.5,0,0,1-2.092,1.018Z" transform="translate(-394.877 -212.356)" fill="#3c3c3b"/><path d="M299.1,304.56c-.113,0-.17-.113-.226-.17a.945.945,0,0,1-.057-.678l.113-.113a8.358,8.358,0,0,0,1.187-.056c.226,0,.226-.057.226-.226v-1.357c0-.226-.113-.509.113-.678a.973.973,0,0,1-.113-.678v-.735c0-.283-.113-.509-.113-.735a2.988,2.988,0,0,1,.057-.735,1.924,1.924,0,0,1,.113-.792,2.155,2.155,0,0,0,.057-.848c0-.848,0-1.64-.057-2.488,0-.283.17-.509.057-.735a1.944,1.944,0,0,1-.057-.792v-.792c0-.283.057-.565.057-.792a3.478,3.478,0,0,0-.057-.792,1.482,1.482,0,0,0-.113-.848.718.718,0,0,1-.057-.339V287.6c-.057-.283.113-.509,0-.792a1.272,1.272,0,0,0,.057-.792,1.245,1.245,0,0,1-.057-.452v-3.223a.279.279,0,0,0-.057-.17c-.057-.283.113-.565-.113-.792a2.751,2.751,0,0,1-.678-.057.839.839,0,0,1-.4-.057.465.465,0,0,1-.283-.283v-.339c0-.17.113-.226.283-.226.565,0,1.187,0,1.753-.057a1.243,1.243,0,0,0,.792-.113.962.962,0,0,1,.4-.057,6.144,6.144,0,0,1,1.018.057c.339.057.678-.113,1.018-.057a1.1,1.1,0,0,0,.4.057.75.75,0,0,1,.452.622c0,.057-.17.283-.283.283a1.924,1.924,0,0,0-.565.057c-.17,0-.339-.057-.509-.057l-.113.113v1.866a1.02,1.02,0,0,0,.113.565c.113.17-.113.283,0,.452a5.473,5.473,0,0,0-.113,1.64,2.84,2.84,0,0,0,.113,1.187c.057,0,.057.113,0,.17-.17.283,0,.622-.17.848a1.8,1.8,0,0,1,.113.792v1.64a8.259,8.259,0,0,1,.17,2.035,1.421,1.421,0,0,0,.113.848.483.483,0,0,1,0,.4,1.884,1.884,0,0,0-.113.961v4.806a12.06,12.06,0,0,1,.17,2.827,8.32,8.32,0,0,0,0,1.187,7.371,7.371,0,0,0,1.922.057c.339.057.4-.057.452-.4.057-.509.339-.9.4-1.357a2.269,2.269,0,0,0,.17-.848,8.337,8.337,0,0,0,.452-1.979,1.079,1.079,0,0,1,.17-.452c.057-.113.113-.17.226-.17h.226c.226,0,.452-.113.622.113-.17.226.057.4.057.622,0,.509.057.961.057,1.414,0,.792-.057,1.583-.057,2.375a1.612,1.612,0,0,1-.113.9c-.057.113.057.226.057.4,0,.283.113.509-.17.509-1.131-.113-3.732.113-3.958,0h-1.018c-.452-.17-2.431.113-3.619,0-.113-.057-.339-.057-.509-.113" transform="translate(-298.7 -223.255)" fill="#3c3c3b"/><path d="M320.512,301.119h1.244c.17,0,.226-.113.17-.283a.717.717,0,0,0-.057-.339c-.17-.735-.339-1.414-.565-2.092a16.264,16.264,0,0,1-.509-2.262,18.581,18.581,0,0,0-.4-2.035c-.057-.057-.057-.113-.113-.113v.057a1.566,1.566,0,0,0-.057.509c-.057.17-.057.4-.113.565a3.9,3.9,0,0,1-.17.452c-.113.17.057.339-.057.509a9.593,9.593,0,0,0-.226,1.244,9.03,9.03,0,0,1-.283,1.187c-.113.622-.226,1.244-.283,1.866-.057.226-.226.509-.113.678.17.283.4.113.622.113a6.249,6.249,0,0,1,.9-.057m-4.467,6.728c-.113-.17-.057-.4-.057-.622,0-.057.17-.226.17-.17.283.226.565-.113.848.057.057,0,.113-.057.113-.17.057-.226.113-.452.17-.792.057-.678.283-1.3.339-1.922a5.088,5.088,0,0,0,.17-.9c.113-.452.17-.9.283-1.3a11.75,11.75,0,0,0,.17-1.3l.339-1.7c.17-.678.339-1.357.452-1.979.226-1.357.339-2.657.622-4.014.226-.961.283-1.866.509-2.827a11.126,11.126,0,0,1,.17-1.357,2.806,2.806,0,0,1,.17-.735c.057-.17.17-.226.4-.17a.478.478,0,0,0,.4,0,1.627,1.627,0,0,1,.735-.057c.17.057.339.057.339.226,0,.4.283.961.226,1.357a.817.817,0,0,0,.113.4,17.8,17.8,0,0,1,.509,2.375,6.159,6.159,0,0,0,.283,1.47c.17.848.4,1.64.565,2.488s.339,1.7.565,2.488a3.305,3.305,0,0,0,.226,1.074c.113.339,0,.678.17,1.018a2.883,2.883,0,0,0,.452,1.64l.283,1.244v.17c.283.622.283,1.357.509,1.979l.226.9a.481.481,0,0,0,.17.283c.057.113.17,0,.226,0,.226,0,.452-.113.622.057.17.226.057.509.057.792-.057.113-.226.283-.339.226a.936.936,0,0,0-.678,0,.8.8,0,0,1-.622-.057.966.966,0,0,0-.792,0,.835.835,0,0,1-.509.057c-.226-.057-.452-.17-.622,0a.106.106,0,0,1-.17,0,2.614,2.614,0,0,0-1.3-.113c-.113,0-.17-.057-.226-.17a.8.8,0,0,1-.113-.339c-.057-.17.057-.452.17-.452a2.448,2.448,0,0,1,.9-.057c.113.057.17-.113.17-.226-.17-.622-.283-1.3-.4-1.922a16.08,16.08,0,0,1-.509-2.375c-.057-.17-.17-.283-.283-.283-.113-.057-.226,0-.339-.057-.226-.057-.339.17-.509.17a1.331,1.331,0,0,0-.452-.113.106.106,0,0,0-.17,0,3.959,3.959,0,0,1-1.413,0c-.17,0-.226.226-.283.4,0,.17-.113.339-.113.452a12.426,12.426,0,0,1-.339,2.092,13.2,13.2,0,0,1-.226,1.47c0,.113-.057.226-.057.339a.175.175,0,0,1,.057.113c.339,0,.678.17.961.057.226-.057.226-.057.283.226,0,.17.113.283,0,.452-.113.226-.283.17-.452.226-.057.057-.17,0-.283,0h-.678l-.17.057a6.491,6.491,0,0,0-1.074.057c-.113,0-.283.17-.4.057-.339-.17-.509-.17-.565-.283" transform="translate(-306.208 -226.6)" fill="#3c3c3b"/><path d="M349.159,292.775c.113.113.226-.17.283-.17a1.1,1.1,0,0,0,.565-.565c.113-.283.4-.509.452-.848a6.718,6.718,0,0,0,.339-2.375,4.633,4.633,0,0,0,.17-1.753,2.258,2.258,0,0,1,.113-1.074c.057-.113.057-.17,0-.226a1.118,1.118,0,0,1-.113-.565,4.7,4.7,0,0,0,.057-1.244,6.027,6.027,0,0,1-.4-1.074,9.018,9.018,0,0,0-.565-1.3,1.782,1.782,0,0,0-1.64-.678c-.113.057-.226.17-.17.226.226.339,0,.735.113,1.074a1.867,1.867,0,0,1,0,.792c-.113.283.17.565-.057.848.113.226-.057.452-.057.678a1.244,1.244,0,0,1,.113.792c.057.452,0,.9.057,1.357a10.859,10.859,0,0,0,0,1.357,9.582,9.582,0,0,1,.057,1.244c.057.622.057,1.3.113,1.922v1.244c0,.17-.057.4.057.452.113.113.339,0,.509-.113m-5.6,11.025c.057-.17.113-.283.226-.283a8.353,8.353,0,0,0,1.187-.057c.283,0,.339,0,.339-.283a25.753,25.753,0,0,0-.057-2.94v-.17a1.392,1.392,0,0,0,.057-.678v-4.184c0-.226.057-.452-.057-.622a.728.728,0,0,1-.057-.678c.113-.226-.057-.4,0-.622a1.274,1.274,0,0,0,0-1.018c0-.113,0-.17-.057-.226-.113-.226.17-.452.057-.678a1.09,1.09,0,0,1,0-.735v-.565a2.994,2.994,0,0,1,.057-1.413c.057-.17-.057-.283-.057-.452-.057-.339.17-.622,0-.961a2.511,2.511,0,0,1-.057-1.131,6.144,6.144,0,0,1-.057-1.018c-.057-1.244,0-2.488,0-3.788,0-.226-.113-.283-.339-.283h-.792c-.452.057-.452.057-.565-.452a.362.362,0,0,1,.339-.452.717.717,0,0,1,.339-.057,10.892,10.892,0,0,1,1.357-.057c.226,0,.4.057.565-.113.339.057.678-.113,1.018.057a2.677,2.677,0,0,0,.961.057c1.187.113,3.505.17,4.184,1.187a3.954,3.954,0,0,1,1.244,2.148c.113.509.452,1.47.565,1.922.057.226-.17.452,0,.622.17.226-.057.4-.057.622v.961a2.647,2.647,0,0,1-.226,1.3,1.565,1.565,0,0,0-.057.509c.057.4-.226.792-.339,1.131s-.735,1.187-.735,1.527c0,.057-.057.113-.057.17-.283.283-.678.622-.9.9a4.3,4.3,0,0,1-1.074.678,8.562,8.562,0,0,1-1.922.452.311.311,0,0,0-.17.283v.339c0,1.47,0,2.94.057,4.354v2.714a3.346,3.346,0,0,1,.057,1.074.57.57,0,0,1,.057.17c.057.226.17.283.339.226a3.65,3.65,0,0,1,1.357,0c.283.113.17.452.226.678.057.113-.057.283-.17.339a9.978,9.978,0,0,1-1.3,0,1.13,1.13,0,0,0-.848.113h-.226a4.483,4.483,0,0,0-1.922-.057.374.374,0,0,1-.339-.057,1.411,1.411,0,0,0-.961.057,2.535,2.535,0,0,1-.622.057c-.509.057-.565-.057-.565-.622" transform="translate(-318.118 -223.118)" fill="#3c3c3b"/><path d="M368.607,297.464c.4-.283.678-.226,1.131-.622a1.6,1.6,0,0,0,.452-.622.279.279,0,0,1,.057-.17c.17-.4.283-.4.452-.792.057-.17,0-.339.113-.452.113-.226-.113-.452.057-.678.113-.113.057-.339.057-.339a9.055,9.055,0,0,0,0-1.753c-.113-.678-.283-.9-.4-1.583-.057-.283-.283-.4-.4-.678a1.635,1.635,0,0,0-1.131-.9.985.985,0,0,0-.792-.057c-.113,0-.17,0-.17.113a1.536,1.536,0,0,0,0,.509v.9a4.276,4.276,0,0,0-.057.848,3.5,3.5,0,0,1,.057,1.131c-.113.283.113.565-.057.848.226.283-.057.565-.057.848.057.678-.057,1.357.057,2.035.057.339.113.283,0,.622a1.566,1.566,0,0,0-.057.735.18.18,0,0,0,.17.17c.17-.057.4,0,.509-.113m-4.862,10.29c-.057,0-.17-.057-.17-.113a.7.7,0,0,1-.057-.735c.057-.057.113-.113.17-.113.113-.057.4,0,.565-.057.283-.057.509.057.792-.057.17-.283.057-.678.057-.961a1.482,1.482,0,0,0-.113-.848v-.113c.226-.339,0-.678,0-1.018V303.4a7.044,7.044,0,0,0,.113-2.431.9.9,0,0,1,0-.848,2.28,2.28,0,0,0,0-.622c-.057-.17.113-.339-.057-.509-.113-.17,0-.339.057-.452v-.226c0-.283-.113-.452-.113-.735,0-.226.17-.452,0-.678a1.445,1.445,0,0,0,0-.848,3.7,3.7,0,0,1,0-.792v-4.184a4.363,4.363,0,0,0-.113-.848c-.113-.17-.057-.452-.057-.622a.427.427,0,0,0,.057-.226,2,2,0,0,0-.17-.622c-.17-.17-.4-.057-.622-.057h-.113c-.565.057-.735-.113-.678-.678a.259.259,0,0,1,.226-.283,8.9,8.9,0,0,1,3-.113h.17a2.756,2.756,0,0,1,1.357,0,1.923,1.923,0,0,0,.565.057,2.984,2.984,0,0,1,1.413.226c.622.339,1.7.283,1.979.961.17.339.848.9.961,1.244a5.56,5.56,0,0,1,.283.9c.113.4.113.678.226,1.244a8.438,8.438,0,0,1,.113,1.187,5.444,5.444,0,0,1-.848,2.544c-.226.792-1.018,1.187-1.753,1.527a11.017,11.017,0,0,1-1.3.339c-.283.17-.4.057-.283.4.565.226,1.583.339,1.7.565.452.226.565.622.735.848a3.048,3.048,0,0,0,.17.565c.226.735.509,1.47.678,2.262a1.331,1.331,0,0,1,.113.452,1.607,1.607,0,0,0,.226.678,11,11,0,0,1,.452,1.244,2.394,2.394,0,0,0,.226.678c.113.17.113.509.339.622.226.17.339.4.565.4.113,0,.283.113.4.113.17.113.339-.057.452.17a.619.619,0,0,1,.057.622c-.057.113-.057.226-.226.226a.428.428,0,0,1-.226.057,8.094,8.094,0,0,0-1.64-.057h-.792a1.656,1.656,0,0,1-.9-.4,2.028,2.028,0,0,1-.565-.792,3.029,3.029,0,0,0-.283-.622,5.924,5.924,0,0,1-.565-1.583c-.283-.848-.452-1.7-.735-2.544l-.452-1.187a4.307,4.307,0,0,1-.339-1.131,9.156,9.156,0,0,0-.339-.961.34.34,0,0,0-.226-.057c-.057,0-.057.057-.113.113v.678a3.185,3.185,0,0,0,0,.735c0,.226-.226.4-.057.622.113.226-.057.452.057.678-.17.226,0,.509,0,.735a1.175,1.175,0,0,0-.057.622,10.6,10.6,0,0,1,.057,2.318v1.527c0,.17.113.226.283.226.283.057.565,0,.792.057.283,0,.4.113.4.4.057.057,0,.113.057.17,0,.283-.226.565-.509.509a2.74,2.74,0,0,0-.961,0c-.622,0-1.187,0-1.753.057-.17,0-.283.113-.452,0a7.687,7.687,0,0,0-1.64,0c-.17-.057-.452-.057-.565-.113" transform="translate(-326.767 -226.45)" fill="#3c3c3b"/><path d="M389.79,306.428a2.539,2.539,0,0,0,.339-.509,2.192,2.192,0,0,0,.339-.961c.17-.792.283-1.809.4-2.6a3.223,3.223,0,0,1,.226-1.244c.057-.057,0-.17,0-.226a38.246,38.246,0,0,0,0-4.41c-.057-.565-.17-1.187-.17-1.753a3.223,3.223,0,0,0-.057-.735,1.882,1.882,0,0,1-.057-.792c0-.226-.057-.565-.057-.792a3.936,3.936,0,0,0-.283-1.413,1.331,1.331,0,0,0-.113-.452,3.7,3.7,0,0,0-1.074-1.809c-.113-.113-.17-.226-.339-.226s-.4-.057-.565.113c-.283.283-.622.509-.735.9-.17.678-.509,1.3-.678,1.979a8.561,8.561,0,0,0-.4,2.092v.4a.549.549,0,0,1-.057.509,1.33,1.33,0,0,0-.113.452v2.375a26.792,26.792,0,0,0,.283,4.749c-.057.735.4,1.357.4,2.092a4.688,4.688,0,0,0,1.187,2.431.649.649,0,0,0,.678.283c.4-.17.735-.113.848-.452m-2.375,1.244a3.933,3.933,0,0,1-1.414-.848c-.057-.283-.735-.9-.9-1.074a3.941,3.941,0,0,1-1.018-2.318,15.519,15.519,0,0,1-.509-2.205c0-.113,0-.17-.057-.226a3.156,3.156,0,0,1-.17-1.244,7.576,7.576,0,0,1-.057-1.131,5.816,5.816,0,0,1,.057-1.018,7.537,7.537,0,0,1,0-1.131v-1.187a11.791,11.791,0,0,1,.4-2.035c0-.17.113-.339.113-.452a.717.717,0,0,0,.057-.339,21.356,21.356,0,0,1,1.244-2.827,7.289,7.289,0,0,1,1.979-1.64,6.2,6.2,0,0,1,2.035-.4,2.053,2.053,0,0,1,1.47.622c.678.509,1.413.735,1.7,1.527a7.294,7.294,0,0,1,1.244,2.205c0,.113.226,1.018.226,1.074.057.283.113.792.17,1.074a3.815,3.815,0,0,1,.113.792,9.305,9.305,0,0,0,.113,1.187,6.4,6.4,0,0,1,.057,1.47c.057.4-.057.792.113,1.131.057.113-.057.226-.057.339,0,.452-.17.9-.17,1.3.057.452-.113.848-.057,1.244-.226.4-.057.792-.283,1.187a9.052,9.052,0,0,1-.678,2.092c-.17.678-.678.9-.961,1.527-.057.113-.9.622-.961.9a1.623,1.623,0,0,0-.735.452,2.39,2.39,0,0,1-1.7.4,7.629,7.629,0,0,0-1.357-.452" transform="translate(-335.455 -226.481)" fill="#3c3c3b"/><path d="M409.007,297.464c.4-.283.678-.226,1.131-.622a1.6,1.6,0,0,0,.452-.622.279.279,0,0,1,.057-.17c.17-.4.283-.4.452-.792.057-.17,0-.339.113-.452.113-.226-.113-.452.057-.678.113-.113.057-.339.057-.339a9.055,9.055,0,0,0,0-1.753c-.113-.678-.283-.9-.4-1.583-.057-.283-.283-.4-.4-.678a1.635,1.635,0,0,0-1.131-.9.985.985,0,0,0-.792-.057c-.113,0-.17,0-.17.113a1.538,1.538,0,0,0,0,.509v.9a4.281,4.281,0,0,0-.057.848,3.5,3.5,0,0,1,.057,1.131c-.113.283.113.565-.057.848.226.283-.057.565-.057.848.057.678-.057,1.357.057,2.035.057.339.113.283,0,.622a1.565,1.565,0,0,0-.057.735.18.18,0,0,0,.17.17c.17-.057.4,0,.509-.113m-4.862,10.29c-.057,0-.17-.057-.17-.113a.7.7,0,0,1-.057-.735c.057-.057.113-.113.17-.113.113-.057.4,0,.565-.057.283-.057.509.057.792-.057.17-.283.057-.678.057-.961a1.482,1.482,0,0,0-.113-.848v-.113c.226-.339,0-.678,0-1.018V303.4a7.044,7.044,0,0,0,.113-2.431.9.9,0,0,1,0-.848,2.279,2.279,0,0,0,0-.622c-.057-.17.113-.339-.057-.509-.113-.17,0-.339.057-.452v-.226c0-.283-.113-.452-.113-.735,0-.226.17-.452,0-.678a1.445,1.445,0,0,0,0-.848,3.7,3.7,0,0,1,0-.792v-4.184a4.365,4.365,0,0,0-.113-.848c-.113-.17-.057-.452-.057-.622a.427.427,0,0,0,.057-.226,2.007,2.007,0,0,0-.17-.622c-.17-.17-.4-.057-.622-.057h-.113c-.565.057-.735-.113-.678-.678a.259.259,0,0,1,.226-.283,8.9,8.9,0,0,1,3-.113h.17a2.756,2.756,0,0,1,1.357,0,1.923,1.923,0,0,0,.565.057,2.985,2.985,0,0,1,1.414.226c.622.339,1.7.283,1.979.961.17.339.848.9.961,1.244a5.566,5.566,0,0,1,.283.9c.113.4.113.678.226,1.244a8.438,8.438,0,0,1,.113,1.187,5.445,5.445,0,0,1-.848,2.544c-.226.792-1.018,1.187-1.753,1.527a11.021,11.021,0,0,1-1.3.339c-.283.17-.4.057-.283.4.565.226,1.583.339,1.7.565.452.226.565.622.735.848a3.049,3.049,0,0,0,.17.565c.226.735.509,1.47.678,2.262a1.33,1.33,0,0,1,.113.452,1.608,1.608,0,0,0,.226.678,11,11,0,0,1,.452,1.244,2.4,2.4,0,0,0,.226.678c.113.17.113.509.339.622.226.17.339.4.565.4.113,0,.283.113.4.113.17.113.339-.057.452.17a.619.619,0,0,1,.057.622c-.057.113-.057.226-.226.226a.428.428,0,0,1-.226.057,8.094,8.094,0,0,0-1.64-.057h-.792a1.656,1.656,0,0,1-.9-.4,2.028,2.028,0,0,1-.565-.792,3.027,3.027,0,0,0-.283-.622,5.924,5.924,0,0,1-.565-1.583c-.283-.848-.452-1.7-.735-2.544l-.452-1.187a4.31,4.31,0,0,1-.339-1.131,9.142,9.142,0,0,0-.339-.961.34.34,0,0,0-.226-.057c-.057,0-.057.057-.113.113v.678a3.186,3.186,0,0,0,0,.735c0,.226-.226.4-.057.622.113.226-.057.452.057.678-.17.226,0,.509,0,.735a1.175,1.175,0,0,0-.057.622,10.6,10.6,0,0,1,.057,2.318v1.527c0,.17.113.226.283.226.283.057.565,0,.792.057.283,0,.4.113.4.4.057.057,0,.113.057.17,0,.283-.226.565-.509.509a2.74,2.74,0,0,0-.961,0c-.622,0-1.187,0-1.753.057-.17,0-.283.113-.452,0a7.687,7.687,0,0,0-1.64,0,4.917,4.917,0,0,1-.565-.113" transform="translate(-344.325 -226.45)" fill="#3c3c3b"/><path d="M430.09,306.428a2.541,2.541,0,0,0,.339-.509,2.191,2.191,0,0,0,.339-.961c.17-.792.283-1.809.4-2.6a3.224,3.224,0,0,1,.226-1.244c.057-.057,0-.17,0-.226a38.246,38.246,0,0,0,0-4.41c-.057-.565-.17-1.187-.17-1.753a3.222,3.222,0,0,0-.057-.735,1.882,1.882,0,0,1-.057-.792c0-.226-.057-.565-.057-.792a3.936,3.936,0,0,0-.283-1.413,1.33,1.33,0,0,0-.113-.452,3.7,3.7,0,0,0-1.074-1.809c-.113-.113-.17-.226-.339-.226s-.4-.057-.565.113c-.283.283-.622.509-.735.9-.17.678-.509,1.3-.678,1.979a8.559,8.559,0,0,0-.4,2.092v.4a.55.55,0,0,1-.057.509,1.33,1.33,0,0,0-.113.452v2.375a33.463,33.463,0,0,0,.283,4.749c-.057.735.4,1.357.4,2.092a4.687,4.687,0,0,0,1.187,2.431.649.649,0,0,0,.678.283c.452-.17.735-.113.848-.452m-2.375,1.244a3.933,3.933,0,0,1-1.413-.848c-.057-.283-.735-.9-.9-1.074a3.941,3.941,0,0,1-1.018-2.318,15.519,15.519,0,0,1-.509-2.205c0-.113,0-.17-.057-.226a3.156,3.156,0,0,1-.17-1.244,7.576,7.576,0,0,1-.057-1.131,5.813,5.813,0,0,1,.057-1.018,7.537,7.537,0,0,1,0-1.131v-1.187a11.788,11.788,0,0,1,.4-2.035c0-.17.113-.339.113-.452a.717.717,0,0,1,.057-.339,21.36,21.36,0,0,1,1.244-2.827,7.289,7.289,0,0,1,1.979-1.64,6.2,6.2,0,0,1,2.035-.4,2.053,2.053,0,0,1,1.47.622c.678.509,1.414.735,1.7,1.527a7.3,7.3,0,0,1,1.244,2.205c0,.113.226,1.018.226,1.074.057.283.113.792.17,1.074a3.817,3.817,0,0,1,.113.792,9.305,9.305,0,0,0,.113,1.187,6.406,6.406,0,0,1,.057,1.47c.057.4-.057.792.113,1.131.057.113-.057.226-.057.339,0,.452-.17.9-.17,1.3.057.452-.113.848-.057,1.244-.226.4-.057.792-.283,1.187a9.051,9.051,0,0,1-.678,2.092c-.17.678-.678.9-.961,1.527-.057.113-.9.622-.961.9a1.623,1.623,0,0,0-.735.452,2.39,2.39,0,0,1-1.7.4,5.416,5.416,0,0,0-1.357-.452" transform="translate(-352.97 -226.481)" fill="#3c3c3b"/><path d="M444.465,307.778c-.17,0-.283-.17-.339-.283v-.226a.4.4,0,0,1,.339-.452h.735c.17,0,.339-.17.226-.339a3.111,3.111,0,0,1-.113-1.244,5.572,5.572,0,0,1,.113-.961,2.591,2.591,0,0,0-.057-1.131,2.4,2.4,0,0,1-.113-.622,50.792,50.792,0,0,0,0-5.089c0-1.527-.057-3.053-.057-4.58a3.13,3.13,0,0,1,.113-1.018.34.34,0,0,0,.057-.226,4.366,4.366,0,0,1-.113-.848,4.572,4.572,0,0,1-.057-.9v-.848c0-.057-.057-.057-.057-.113,0-.113-.113-.17-.226-.17H444.3a.386.386,0,0,1-.4-.4V288.1c0-.226.057-.283.283-.339a8.487,8.487,0,0,1,2.035-.17h1.47c.339-.057.509.17.565.452a6.337,6.337,0,0,1,.339,1.3c.057.17.057.339.113.452a10.7,10.7,0,0,1,.283,1.3,5.881,5.881,0,0,0,.17.678,9.2,9.2,0,0,1,.4,1.7c.057.283.283.678.339.961a1.651,1.651,0,0,1,.113.509,10.7,10.7,0,0,0,.283,1.3,7.527,7.527,0,0,1,.283,1.074,5.962,5.962,0,0,1,.283,1.074c0,.057.057.113.057.17,0-.057.057-.113.057-.17.057-.17.113-.283.17-.452.226-.961.339-1.922.622-2.94a5.658,5.658,0,0,0,.339-1.64c0-.113.057-.17.057-.226.4-1.187.4-2.375.792-3.619a7.266,7.266,0,0,0,.226-1.074c.057-.17-.057-.339.113-.452a1.031,1.031,0,0,1,.622-.283,10.384,10.384,0,0,1,2.657,0h1.527c.113.057.283.283.226.4a1.331,1.331,0,0,0-.113.452.267.267,0,0,1-.283.283.93.93,0,0,1-.565-.113.962.962,0,0,0-.4-.057.15.15,0,0,0-.17.17v.339a3,3,0,0,0,.057,1.018,5.482,5.482,0,0,1-.057.961,6.838,6.838,0,0,1,.057,1.074,7.542,7.542,0,0,0,0,1.131v2.148c0,.226-.057.452.113.622.057.057,0,.17,0,.226a6.537,6.537,0,0,0-.057,1.809,2.819,2.819,0,0,1,.17,1.357v1.922a1.243,1.243,0,0,0,.113.792v.113c0,.339-.113.622,0,.9,0,.339.113.565-.057.848,0,.057-.057.113-.057.17a7.616,7.616,0,0,1,.113,1.979v.226q.085.17.17.17a.443.443,0,0,0,.452-.057c.113-.057.283-.057.4-.113a.275.275,0,0,1,.339.17.361.361,0,0,1,0,.339v.057c0,.17.17.4,0,.509a.84.84,0,0,1-.509.113c-.226,0-.452.113-.679.057a.252.252,0,0,0-.283,0,3.549,3.549,0,0,1-1.074.17c-.339.057-.678-.057-.961.113a1.678,1.678,0,0,0-.9-.113h-.961c-.4,0-.565-.283-.4-.678,0-.057.057-.057.057-.113.113-.226.113-.226.339-.283h.4c.4,0,.4,0,.4-.452a4.876,4.876,0,0,0-.113-1.583,11.106,11.106,0,0,0,0-2.375c-.057-.848-.057-1.64-.057-2.488-.17-.339,0-.622,0-.9,0-.622.057-1.187.057-1.753a25.046,25.046,0,0,0-.057-4.636l.057-1.018c0-.057-.113-.057-.113-.057-.057.057-.057.057-.057.113a11.625,11.625,0,0,1-.4,1.809,9.991,9.991,0,0,0-.226,1.131l-.622,2.544-.17,1.074c-.113.339-.113.678-.226,1.018a6,6,0,0,0-.226,1.074,6.375,6.375,0,0,1-.17,1.018c-.113.735-.226,1.47-.283,2.148a6.609,6.609,0,0,1-.283,1.131c-.057.113-.113.339-.283.339-.4,0-.735.17-.848-.113a1.8,1.8,0,0,1-.17-.509c0-.283,0-.339-.17-.509a.208.208,0,0,1-.057-.17c-.057-.622-.4-1.131-.509-1.753s-.4-1.131-.452-1.753c-.339-.848-.339-1.753-.622-2.544a4.711,4.711,0,0,1-.226-.848,2.45,2.45,0,0,0-.057-.283,2.794,2.794,0,0,1-.283-.9c-.17-.735-.283-1.414-.452-2.149l-.452-1.64-.113-.17c0,.057-.113-.057-.113.057a.959.959,0,0,0,0,.565c.057.339-.113.565-.057.848a4.007,4.007,0,0,1,.057.792c0,.283.057.565.057.9a4.362,4.362,0,0,0-.113.848.8.8,0,0,0-.057.509,8.006,8.006,0,0,1,.113,1.64c0,.113-.057.283-.057.4a.361.361,0,0,0,0,.339,1.589,1.589,0,0,1-.057,1.244.208.208,0,0,0-.057.17,15.873,15.873,0,0,0,.057,2.318v.452c0,.057-.057.113-.057.17a4.1,4.1,0,0,1,.113,1.64,11.577,11.577,0,0,1,.057,1.979v.17c.057.17-.057.339.113.4.057.057.17-.057.283-.057a5.814,5.814,0,0,1,.961-.057.122.122,0,0,1,.113.113v.057c0,1.018.113.9-.792.9a3.019,3.019,0,0,0-1.244.113.208.208,0,0,1-.17.057c-.226-.452-.622-.339-1.074-.4" transform="translate(-361.804 -226.474)" fill="#3c3c3b"/><path d="M474.756,301.119H476c.17,0,.226-.113.17-.283a.717.717,0,0,0-.057-.339c-.17-.735-.339-1.414-.565-2.092a16.247,16.247,0,0,1-.509-2.262,18.587,18.587,0,0,0-.4-2.035c-.057-.057-.057-.113-.113-.113v.057a1.566,1.566,0,0,0-.057.509c-.057.17-.057.4-.113.565a3.9,3.9,0,0,1-.17.452c-.113.17.057.339,0,.509a9.582,9.582,0,0,0-.226,1.244c-.057.4-.226.792-.283,1.187-.113.622-.226,1.244-.283,1.866-.057.226-.226.509-.113.678.17.283.4.113.622.113a5.223,5.223,0,0,1,.848-.057m-4.41,6.728c-.113-.17-.057-.4-.057-.622,0-.057.17-.226.17-.17.283.226.565-.113.848.057.057,0,.113-.057.113-.17.057-.226.113-.452.17-.792.057-.678.283-1.3.339-1.922a5.088,5.088,0,0,0,.17-.9c.113-.452.17-.9.283-1.3a11.743,11.743,0,0,0,.17-1.3l.339-1.7c.17-.678.339-1.357.452-1.979.226-1.357.339-2.657.622-4.014.226-.961.283-1.866.509-2.827a11.114,11.114,0,0,1,.17-1.357,2.806,2.806,0,0,1,.17-.735c.057-.17.17-.226.4-.17a.478.478,0,0,0,.4,0,1.628,1.628,0,0,1,.735-.057c.17.057.339.057.339.226,0,.4.283.961.226,1.357a.817.817,0,0,0,.113.4,17.8,17.8,0,0,1,.509,2.375,11.3,11.3,0,0,0,.283,1.47c.17.848.4,1.64.565,2.488s.339,1.7.565,2.488a3.307,3.307,0,0,0,.226,1.074c.113.339,0,.678.17,1.018a2.883,2.883,0,0,0,.452,1.64l.283,1.244c.057.057,0,.113.057.17.283.622.283,1.357.509,1.979l.226.9a.481.481,0,0,0,.17.283c.057.113.17,0,.226,0,.226,0,.452-.113.622.057.17.226.057.509.057.792-.057.113-.226.283-.339.226a.936.936,0,0,0-.678,0,.8.8,0,0,1-.622-.057.966.966,0,0,0-.792,0,.835.835,0,0,1-.509.057c-.226-.057-.452-.17-.622,0a.106.106,0,0,1-.17,0,2.614,2.614,0,0,0-1.3-.113c-.113,0-.17-.057-.226-.17a.8.8,0,0,1-.113-.339c-.057-.17.057-.452.17-.452a2.448,2.448,0,0,1,.9-.057c.113.057.17-.113.17-.226-.17-.622-.283-1.3-.4-1.922a16.08,16.08,0,0,1-.509-2.375c-.057-.17-.17-.283-.283-.283-.113-.057-.226,0-.339-.057-.226-.057-.339.17-.509.17a1.331,1.331,0,0,0-.452-.113.106.106,0,0,0-.17,0,3.959,3.959,0,0,1-1.414,0c-.17,0-.226.226-.283.4,0,.17-.113.339-.113.452a12.426,12.426,0,0,1-.339,2.092,13.224,13.224,0,0,1-.226,1.47c0,.113-.057.226-.057.339a.175.175,0,0,1,.057.113c.339,0,.678.17.961.057.226-.057.226-.057.283.226a.638.638,0,0,1,.057.452c-.113.226-.283.17-.452.226-.057.057-.17,0-.283,0h-.678l-.17.057a6.491,6.491,0,0,0-1.074.057c-.113,0-.283.17-.4.057-.509-.17-.622-.17-.678-.283" transform="translate(-373.267 -226.6)" fill="#3c3c3b"/><path d="M491.443,307.9a4.25,4.25,0,0,1-.848,0c-.17,0-.226-.113-.283-.226a1.157,1.157,0,0,1,0-.622.322.322,0,0,1,.4-.226c.226.057.4.17.622.113.339-.057.283,0,.339-.339.113-1.187-.057-3.675.057-4.014l-.057-.565a24.527,24.527,0,0,1,0-2.884,1.556,1.556,0,0,0-.113-1.018,4.253,4.253,0,0,0,0-.848c0-1.244,0-2.488-.057-3.732,0-.226.057-.452.057-.622,0-.057.057-.113.057-.17a12.2,12.2,0,0,1-.17-1.979c-.057-.735.113-1.074-.057-1.357-.057-.057.057-.17.057-.226,0-.113-.057-.226-.17-.226h-.792c-.4,0-.452-.339-.4-.678a.122.122,0,0,1,.113-.113,1,1,0,0,1,.565-.226c1.3.17,2.092-.113,3.166.057a.57.57,0,0,1,.622.4.8.8,0,0,1,.113.339c.17.9.565,2.148.792,3.053a2.3,2.3,0,0,1,.226,1.074,2.447,2.447,0,0,0,.057.283l.622,1.866c.113.452.226.9.339,1.3a9.747,9.747,0,0,1,.4,1.187,4.237,4.237,0,0,0,.283.9,5.56,5.56,0,0,0,.283.9.375.375,0,0,1,.113.4,2.005,2.005,0,0,0,.17.622c.17.678.452,1.3.622,1.922a15.871,15.871,0,0,0,.452,1.753c.057.113.113.509.17.565v.057c.057-.057.057-.057.057-.113v-.4c0-1.7-.057-3.675,0-5.089v-.283a11.194,11.194,0,0,1-.17-2.375c-.057-.735,0-1.414,0-2.148,0-.17.057-.283,0-.4a1.482,1.482,0,0,1-.113-.848,4.276,4.276,0,0,0,.057-.848,2.372,2.372,0,0,1-.057-.9c0-.283.057-.565.057-.848v-1.3a.259.259,0,0,0-.226-.283h-.961a.207.207,0,0,1-.226-.226v-.4c0-.113,0-.17.17-.226s.283-.17.452-.113a3.346,3.346,0,0,1,1.074-.057c.339.113.678-.113.961.113.113.057.17,0,.226,0a.8.8,0,0,1,.622-.057c.113,0,.226.17.226.283a.478.478,0,0,0,0,.4.267.267,0,0,1-.283.283,4.276,4.276,0,0,1-.848.057c-.113,0-.17.113-.17.226s-.057.17,0,.226a2.076,2.076,0,0,1,.057,1.018c-.113.226.113.4-.057.622a.342.342,0,0,0,0,.452,2.059,2.059,0,0,1,.113.792v4.41a3.92,3.92,0,0,1,.057,1.809,5.967,5.967,0,0,1,.113,1.414,3.019,3.019,0,0,1-.113,1.244,1.019,1.019,0,0,0,.113.565c.113.17-.113.339,0,.452.17.17-.113.339,0,.509.17.226-.057.452,0,.678a1.944,1.944,0,0,1,.057.792c.057.226-.226.452-.057.678a2.71,2.71,0,0,0,.057,1.64c.057.226-.057.452,0,.678a3.479,3.479,0,0,1-.057.735c-.113.17-.283.057-.4.17h-.283a7.289,7.289,0,0,0-1.922,0,.455.455,0,0,1-.509-.283c-.226-.678-.509-1.357-.678-2.035a18.98,18.98,0,0,0-.792-2.544,3.189,3.189,0,0,1-.226-.678,8.95,8.95,0,0,0-.509-1.753c-.226-.735-.4-1.47-.622-2.205s-.4-1.527-.678-2.262c-.113-.339-.17-.735-.283-1.074-.057-.113-.057-.283-.113-.4a7.1,7.1,0,0,1-.565-2.148c0-.057-.17-.17-.17-.113a.208.208,0,0,0-.057.17.614.614,0,0,1,.057.283,8.167,8.167,0,0,0,0,2.035,2.3,2.3,0,0,1,0,1.074c0,.4.113,1.413.113,1.809,0,1.809-.113,3,0,4.806a6.148,6.148,0,0,0,.057,1.018,2.723,2.723,0,0,1,0,.678.541.541,0,0,0,0,.509c.057.057.057.226.057.283a6.946,6.946,0,0,0-.113,1.527.326.326,0,0,0,.339.339h.226c.226.057.452-.113.565.113a.76.76,0,0,1,.113.509.286.286,0,0,1-.283.4Z" transform="translate(-381.869 -226.538)" fill="#3c3c3b"/><path d="M515.323,307.926a11,11,0,0,0-1.244-.452c-.057,0-.113-.057-.17-.057a3.745,3.745,0,0,1-1.47-1.64c-.17-.509-.4-.961-.565-1.47a5.288,5.288,0,0,0-.4-1.244.57.57,0,0,1-.057-.17,4.411,4.411,0,0,0-.17-1.244,6.375,6.375,0,0,1-.17-1.018l-.17-1.018a4.19,4.19,0,0,1-.057-1.187,1.922,1.922,0,0,1-.057-.565h.057c0-.4-.057-.735-.057-1.074a3.13,3.13,0,0,1,.113-1.018c.057-.113,0-.339,0-.452a6.792,6.792,0,0,1,.17-1.131,2.819,2.819,0,0,0,.17-1.357c0-.056.057-.17.057-.226.283-.735.452-1.527.792-2.205.056-.113-.057-.226,0-.283.283-.339.339-.792.565-1.074a4.7,4.7,0,0,1,1.583-1.414c.452-.057.9-.339,1.413-.17a1.748,1.748,0,0,0,.452.113,1.416,1.416,0,0,1,1.018.452,6.051,6.051,0,0,1,.792.9c0,.057.113.057.113,0l.17-.848c.057-.113.057-.283.113-.4.057-.17.792-.339.961-.226.113,0,.17.113.17.226-.057.17-.17.283-.057.4a4.1,4.1,0,0,0-.113,1.414,2.259,2.259,0,0,1-.113,1.074c-.113.226,0,.452,0,.678s.113.4,0,.622.113.4.113.622a5.488,5.488,0,0,1-.057.961.424.424,0,0,0,.057.283.172.172,0,0,1,0,.226.912.912,0,0,1-1.018.339l-.113-.113a.93.93,0,0,1-.113-.565,5.7,5.7,0,0,0-.17-1.414,9.849,9.849,0,0,1-.283-1.244,7.745,7.745,0,0,0-.848-1.979.524.524,0,0,0-.792-.17,2.01,2.01,0,0,0-.735.961l-.509,1.583c0,.057-.057.113-.057.17-.057.622-.17,1.244-.283,1.866a1.64,1.64,0,0,1,0,.9,4.832,4.832,0,0,0,0,.9v1.866c0,.848-.17,1.357-.113,2.149a15.314,15.314,0,0,0,.226,2.262,15.513,15.513,0,0,0,.452,2.827c-.057.452.283.792.452,1.187a1.564,1.564,0,0,0,.622.735c.452.226.848.226,1.131-.17a3.956,3.956,0,0,0,.509-.961,13.312,13.312,0,0,0,.622-1.979l.113-.678.057-.509c0-.226.17-.339.452-.339h.509c.17,0,.226.17.226.339-.057.17,0,.4-.113.565a1.439,1.439,0,0,0-.113.4,4.317,4.317,0,0,1-.283,1.527c-.113.452-.283.792-.4,1.187a4.6,4.6,0,0,1-1.583,1.866,2.88,2.88,0,0,1-.961.4c-.113.057-.283.057-.4.113a1.409,1.409,0,0,1-.452-.057" transform="translate(-390.879 -226.396)" fill="#3c3c3b"/><path d="M531.758,307.973c-.057-.057-.113-.113-.17-.113-.226,0-.4.17-.622.057-.17-.113-.339-.057-.565-.057a2.28,2.28,0,0,0-.622,0c-.339.113-.622-.057-.9,0h-.961c-.113,0-.17-.057-.226-.17-.283-.509-.17-.735.452-.792a5.457,5.457,0,0,1,.961,0c.113-.057.17-.113.17-.226v-3.279a1.673,1.673,0,0,0-.113-.565,1.406,1.406,0,0,1-.057-.452c-.057-.339.226-.565.113-.9a6.93,6.93,0,0,1-.113-1.074v-1.922a.93.93,0,0,1,.113-.565.962.962,0,0,0,.057-.4,23.72,23.72,0,0,1,0-4.693v-2.375c0-.226.17-.452.057-.678a1.627,1.627,0,0,1-.057-.735c-.057-.113-.057-.17-.226-.17a4.57,4.57,0,0,1-.848.057c-.339.057-.452-.17-.509-.4a.717.717,0,0,1,.057-.339.207.207,0,0,1,.226-.226c.339,0,.622-.057,1.018-.057a3.187,3.187,0,0,0,.735,0,.717.717,0,0,1,.339-.057c.452-.057.9.17,1.357-.057a1.318,1.318,0,0,0,1.131,0c.113-.057.226.057.339.057.735,0,1.753,0,2.488-.057a.962.962,0,0,1,.4.057c.17.113.283,0,.339.113.113.113.057.452.057.565a3.225,3.225,0,0,1,.057.735v1.527a2.155,2.155,0,0,1,.057.848c-.057.113.057.339-.057.4a.279.279,0,0,0-.17.057,1.565,1.565,0,0,0-.509.057c-.113.057-.17-.057-.17-.113,0-.4-.4-.792-.4-1.187a2.793,2.793,0,0,0-.283-.9,6.333,6.333,0,0,1-.283-.735c-.113-.4-.735-.509-1.074-.509-.283,0-.565.113-.848.113a1.13,1.13,0,0,0-.113.735v1.527c0,.113.113.283,0,.4-.113.057,0,.735,0,1.074v.622c0,.226.113.509,0,.735a8.886,8.886,0,0,0,0,1.753.839.839,0,0,0,.057.4l.113.17c.339-.17.792.057,1.187,0,.113-.057.226-.113.226-.226v-.9c0-.226.113-.4.283-.4.509-.057.679.057.679.678a7.351,7.351,0,0,0,.113.961c.057,0,0,.113,0,.17-.17.339-.057.565-.113.961a4.572,4.572,0,0,1-.057.9.4.4,0,0,1-.339.452c-.226,0-.283-.057-.339-.226a.955.955,0,0,1-.17-.565v-.565c0-.057-.057-.226-.113-.226-.4.057-.735-.17-1.074,0-.113.057-.283,0-.339.057,0,.057.057.339.057.452,0,.452.057.961.057,1.357-.057.565,0,1.979-.057,2.375.113.057.057.622.057.9,0,.226.113.509,0,.735s.17,1.809,0,3.279v.509c0,.17.113.283.283.226s.339-.113.565-.17c.283-.057,1.018.17,1.244-.113a1.982,1.982,0,0,0,.339-.792c.057-.339.283-.565.226-.9a9.127,9.127,0,0,0,.565-2.035c.113-.226.17-.17.4-.17s.339-.057.452,0a.973.973,0,0,1,.057.792c-.057.057,0,.113,0,.17.057.226.17.452.057.678-.057.226.057.452.057.678v2.205c0,.283-.283.509-.509.4a3.409,3.409,0,0,0-1.3-.057,1.392,1.392,0,0,0-.678-.057,10.978,10.978,0,0,1-1.357.113,1.8,1.8,0,0,0-.792.113.624.624,0,0,1-.452,0" transform="translate(-398.155 -226.555)" fill="#3c3c3b"/><path d="M423,258.966c-3.675,3.11-9.1,3.336-14.135,3.279-2.827-.057-14.983-.565-9.216-2.827-4.014-1.809-5.2.622-2.544,3.166,2.884,2.77,7.972,3.223,12.269,3.279,3.958.057,20.637-1.414,13.626-6.9" transform="translate(-340.849 -213.96)" fill="#4d4084"/><path d="M438.009,391.53c8.255,1.187-6.106,7.124-4.749-1.018a4.974,4.974,0,0,0-2.035,6.219c3.732,4.523,11.986,4.806,15.775,0,4.014-5.258-6.615-11.308-8.99-5.2" transform="translate(-356.14 -270.535)" fill="#4d4084"/><path d="M396.592,389.884c1.187,8.2-12.891,2.205-4.806,1.018-2.375-6.163-13.061-.113-8.99,5.145,3.788,4.862,11.986,4.523,15.775,0a4.959,4.959,0,0,0-1.979-6.163" transform="translate(-334.851 -270.245)" fill="#4d4084"/><path d="M416.306,393.1c-1.583,2.714-6.163,7.633-6.106,10.516.113,2.94,5.258,7.8,7.067,10.516,1.47-2.827,5.767-7.859,5.6-10.912-.17-2.94-4.806-7.463-6.559-10.121" transform="translate(-347.158 -272.331)" fill="#4d4084"/><path d="M384.367,249.694c.452-.283-.283-.792-.283-1.244,0-.057,0-.057-.057-.113a3.48,3.48,0,0,1,2.318-4.127,5.476,5.476,0,0,1,5.767,1.244,7.159,7.159,0,0,1,1.809,3.562h0a.636.636,0,0,0,.622.4h2.714c.339,0,.678-.226.622-.509v-.057a19.242,19.242,0,0,0-.509-3.619,15.04,15.04,0,0,0-5.711-9.159,10.689,10.689,0,0,0-8.594-2.205c-4.58.792-7.8,4.071-7.972,8.142-.17,3.449,2.77,6.446,7.35,7.52.622.113,1.413.509,1.922.17" transform="translate(-331.898 -203.049)" fill="#4d4084"/><path d="M407.686,216.569a33.039,33.039,0,0,1,3.9,13.57v.17c0,.283.283.452.622.452h3.505c.339,0,.622-.226.622-.452v-.17a32.555,32.555,0,0,1,3.9-13.57,43.529,43.529,0,0,0,2.94-6.672c1.187-4.014-.057-7.746-2.148-11.364A30.525,30.525,0,0,0,414.7,191.3a1.893,1.893,0,0,0-.735-.4,1.355,1.355,0,0,0-.735.4,28.19,28.19,0,0,0-6.332,7.237c-2.092,3.619-3.336,7.35-2.148,11.364a43.524,43.524,0,0,0,2.94,6.672" transform="translate(-344.587 -184.454)" fill="#4d4084"/><path d="M450.186,241.925c-.17-4.014-3.392-7.35-7.972-8.142a11.122,11.122,0,0,0-8.594,2.205,14.79,14.79,0,0,0-5.711,9.159,19.912,19.912,0,0,0-.509,3.619v.057a.576.576,0,0,0,.622.509h2.714a.587.587,0,0,0,.622-.4h0a7.16,7.16,0,0,1,1.809-3.562,5.476,5.476,0,0,1,5.767-1.244,3.537,3.537,0,0,1,2.318,4.127c0,.057-.057.057-.057.113,0,.452-.678.961-.283,1.244.509.339,1.244-.057,1.922-.17,4.58-1.074,7.52-4.071,7.35-7.52" transform="translate(-354.633 -203.026)" fill="#4d4084"/><path d="M309.705,221.536c.339-.452.452-.678.4-.9a1.3,1.3,0,0,0-.678-.848c-.848-.678-1.187-.622-1.809.226l-.339.452,2.035,1.583Zm-2.94-.4-.452.565-.113-.113,1.3-1.7c.622-.792.9-1.018,1.414-1.131a1.354,1.354,0,0,1,1.131.226,1.312,1.312,0,0,1,.509,1.187,2.733,2.733,0,0,1-.735,1.47l-.339.452,2.035,1.527.452-.565.113.113-1.413,1.809-.113-.113.452-.565Z" transform="translate(-301.959 -196.546)" fill="#3c3c3b"/><path d="M318.31,211.05a2.2,2.2,0,0,0,.622-.961,1.165,1.165,0,0,0-.452-.961,1.134,1.134,0,0,0-.961-.4c-.283.057-.452.17-.9.622l-.226.226,1.7,1.64Zm-2.544-.735-.452.509-.113-.113,1.357-1.413c.735-.792,1.018-1.018,1.47-1.131a1.178,1.178,0,0,1,1.131.283c.565.509.509,1.357-.17,2.149a1.777,1.777,0,0,1,1.414-.452,1.847,1.847,0,0,1,.9.509l.113.113a.422.422,0,0,0,.17.17c.339.283.565.339.735.17a.6.6,0,0,0,.17-.283l.17.057a.823.823,0,0,1-.339.509,1.305,1.305,0,0,1-1.074.339c-.283-.057-.452-.17-.9-.622a1.747,1.747,0,0,0-.848-.509c-.283,0-.565.113-.961.565l-.17.17,1.979,1.866.452-.509.113.113-1.583,1.64-.113-.113.452-.509Z" transform="translate(-305.871 -191.94)" fill="#3c3c3b"/><path d="M328.174,199.893c.057.4.4.848,1.187,1.753.848.961,1.244,1.357,1.7,1.47a1.213,1.213,0,0,0,1.131-.283,1.331,1.331,0,0,0,.452-1.187c-.057-.4-.4-.848-1.131-1.753-.848-1.018-1.3-1.413-1.7-1.47a1.213,1.213,0,0,0-1.131.283,1.12,1.12,0,0,0-.509,1.187m4.071-.678a3.522,3.522,0,0,1,.735,2.149,2.225,2.225,0,0,1-.735,1.64,2.928,2.928,0,0,1-3.732-4.41,2.646,2.646,0,0,1,3.732.622" transform="translate(-311.325 -187.567)" fill="#3c3c3b"/><path d="M342.549,194.12c.565-.4.678-.452.848-.735a1.238,1.238,0,0,0,.17-1.074,7.185,7.185,0,0,0-.9-1.583c-.678-1.018-1.074-1.357-1.527-1.47a1.226,1.226,0,0,0-.961.17c-.113.057-.283.17-.678.4l-.283.17,2.94,4.354Zm-4.071-3.619-.565.4-.113-.113,1.583-1.074c1.018-.678,1.414-.848,2.092-.735a2.718,2.718,0,0,1,2.035,1.3,2.854,2.854,0,0,1,.4,2.657c-.17.565-.452.848-1.357,1.413l-1.64,1.131-.113-.113.565-.4Z" transform="translate(-315.693 -183.604)" fill="#3c3c3b"/><path d="M354.066,180.4l-.057-.17,1.413-.735.057.17-.622.339,1.527,2.827c.509.961.565,1.187.509,1.64a1.631,1.631,0,0,1-.961,1.187,2.543,2.543,0,0,1-1.64.283c-.452-.113-.678-.4-1.187-1.357l-1.527-2.827-.622.283-.057-.17,2.035-1.074.057.17-.622.339,1.527,2.827c.565,1.074.622,1.187.961,1.357a1.274,1.274,0,0,0,1.187-.057,1.075,1.075,0,0,0,.678-1.131c0-.339-.113-.509-.509-1.357l-1.527-2.827Z" transform="translate(-321.386 -179.5)" fill="#3c3c3b"/></g><path d="M365.835,175.892l-.678.226L365.1,176l2.148-.9.057.17-.622.283,1.979,4.862.678-.283.057.17-2.149.848-.057-.113.622-.283Z" transform="translate(-30.118 -4.389)" fill="#3c3c3b"/><g transform="translate(340.749 168.053)"><path d="M377.109,171.3l-.283.113c-.509.17-.678.283-.848.622a2.608,2.608,0,0,0-.113,1.357l-.113.057-.452-1.7,4.41-1.357.565,1.7-.113.057a3.254,3.254,0,0,0-.848-1.074c-.339-.226-.509-.226-1.018-.057l-.283.057,1.583,5.032.735-.226.057.17-2.375.735-.057-.17.735-.226Z" transform="translate(-375.3 -170.4)" fill="#3c3c3b"/></g><path d="M401.07,167.613l-.452,2.431,1.583-.226Zm-.509,2.6-.339,1.7.735-.113v.17l-1.357.17v-.17l.4-.057,1.187-5.654.226-.057,2.488,5.145.565-.057v.17l-2.262.283v-.17l.735-.113-.792-1.527Z" transform="translate(-45.112 -0.522)" fill="#3c3c3b"/><g transform="translate(361.895 165)"><path d="M416.149,165.226v-.17l1.583-.057v.17h-.678l.113,3.223c.057,1.074,0,1.357-.226,1.7a1.5,1.5,0,0,1-1.357.622A2.316,2.316,0,0,1,414,170.2c-.339-.339-.452-.678-.509-1.753l-.113-3.223H412.7v-.17l2.318-.057v.17h-.678l.113,3.223c.057,1.187.057,1.3.283,1.64a1.361,1.361,0,0,0,1.074.452,1.129,1.129,0,0,0,1.131-.735,3.072,3.072,0,0,0,.113-1.47l-.113-3.223Z" transform="translate(-412.7 -165)" fill="#3c3c3b"/><path d="M430.135,165.583h-.283c-.565-.057-.735,0-1.018.283a3.372,3.372,0,0,0-.622,1.187H428.1l.17-1.753,4.58.339-.057,1.753h-.113a3.189,3.189,0,0,0-.4-1.3c-.226-.339-.4-.4-.961-.452h-.283l-.4,5.258.792.057v.17l-2.488-.17v-.17l.792.057Z" transform="translate(-419.393 -165.13)" fill="#3c3c3b"/></g><path d="M443.692,169.81l-.452,2.544.679.113-.057.17-2.262-.4.057-.17.678.113.961-5.145-.679-.17.057-.17,2.262.452-.057.17-.679-.113-.452,2.431,2.205.4.452-2.431-.678-.113.057-.17,2.262.4-.057.17-.678-.113-1.018,5.2.735.113-.057.17-2.262-.452.057-.17.678.17.452-2.6Z" transform="translate(-63.365 -0.739)" fill="#3c3c3b"/><g transform="translate(386.886 167.94)"><path d="M459.162,170.6l-.679-.226.057-.17,3.845,1.187-.4,1.47-.113-.057c.113-1.187-.17-1.527-1.244-1.809l-.622-.17-.735,2.431c1.018.339,1.187.226,1.47-.622l.113.057-.678,2.205-.113-.057a2.749,2.749,0,0,0,.113-.792c-.057-.283-.226-.4-.678-.565h-.283l-.792,2.488,1.018.339c.848.339,1.187.113,1.979-1.074l.113.057-.678,1.64-3.958-1.244.057-.17.678.226Z" transform="translate(-456.9 -170.2)" fill="#3c3c3b"/><path d="M472.614,175.352l-.622-.283.057-.17,1.64.678.509,2.884c.17.961.226,1.244.283,1.753l1.527-3.505-.622-.283.057-.17,1.47.622-.057.17-.622-.283-2.149,4.976-.17-.057-1.074-6.219-2.035,4.693.622.283-.057.17-1.47-.622.057-.17.622.283Z" transform="translate(-462.55 -172.243)" fill="#3c3c3b"/><path d="M488.436,182.818l-.226-.113c-.452-.283-.678-.339-1.018-.17a2.467,2.467,0,0,0-1.074.848l-.113-.057.9-1.527,4.014,2.262-.848,1.583-.113-.057a2.9,2.9,0,0,0,.17-1.357c-.057-.4-.17-.509-.678-.792l-.226-.113-2.6,4.58.678.4-.057.17-2.149-1.244.057-.17.678.4Z" transform="translate(-469.156 -175.241)" fill="#3c3c3b"/></g><path d="M499.075,190.009l-.565-.4.113-.113,1.866,1.3-.057.113-.622-.4-3,4.354.565.4-.057.113-1.922-1.3.113-.113.565.4Z" transform="translate(-86.747 -10.648)" fill="#3c3c3b"/><g transform="translate(414.208 183.421)"><path d="M508.263,197.988a6,6,0,0,0-1.47,1.413,4.012,4.012,0,0,0-1.131,1.809,1.156,1.156,0,0,0,.452,1.131,1.219,1.219,0,0,0,1.357.226,4.708,4.708,0,0,0,1.414-1.357c.792-.961,1.131-1.413,1.187-1.809a1.229,1.229,0,0,0-.452-1.131,1.162,1.162,0,0,0-1.357-.283m-1.753,7.181c-1.414-1.244-1.64-2.035-.792-3.053a2.9,2.9,0,0,1-.4-1.018,3.14,3.14,0,0,1,2.77-3.505,2.259,2.259,0,0,1,1.7.509,2.675,2.675,0,0,1-.057,3.788,2.859,2.859,0,0,1-2.375,1.074,1.858,1.858,0,0,1-.961-.226l-.113.17c-.4.509-.565.9-.452,1.3a2.835,2.835,0,0,0,.735.961Z" transform="translate(-505.224 -197.581)" fill="#3c3c3b"/><path d="M521.253,208.414l.113-.113,1.131,1.131-.113.113-.509-.509-2.318,2.205c-.792.735-1.018.9-1.47.961a1.617,1.617,0,0,1-1.414-.622,1.99,1.99,0,0,1-.678-1.527c0-.509.17-.792,1.018-1.527l2.318-2.205-.509-.509.113-.113,1.583,1.64-.113.113-.509-.509-2.318,2.205c-.848.792-.961.9-1.018,1.3a1.238,1.238,0,0,0,.4,1.074,1.176,1.176,0,0,0,1.3.339c.339-.113.509-.226,1.131-.848l2.318-2.205Z" transform="translate(-509.902 -201.11)" fill="#3c3c3b"/><path d="M528.893,218.278l-.452-.565.113-.113,2.488,3.223-1.187.961-.057-.113c.735-.9.735-1.357,0-2.205l-.4-.509-1.979,1.527c.622.848.848.9,1.583.339l.057.113-1.809,1.413-.057-.113c.4-.339.452-.4.509-.565.113-.226.057-.452-.226-.848l-.17-.226-2.035,1.583.679.848c.509.735.9.792,2.205.283l.057.113-1.47.961-2.544-3.279.113-.113.452.565Z" transform="translate(-513.471 -206.281)" fill="#3c3c3b"/></g><rect width="90.068" height="0.678" transform="translate(321.526 284.073)" fill="#4d4084"/><rect width="141.576" height="0.678" transform="translate(295.8 262.814)" fill="#4d4084"/></g></svg>