<svg xmlns="http://www.w3.org/2000/svg" width="35.359" height="50" viewBox="0 0 35.359 50"><g transform="translate(-35.186 -43.277)"><path d="M43.267,91.707a8.739,8.739,0,0,0,12.349,0L69.5,77.823a3.577,3.577,0,0,0-1.968-6.06,3.822,3.822,0,0,0-.956-3.806,3.732,3.732,0,0,0-2.14-1.054,4,4,0,0,0-2.818-5.211l5.823-5.815a4.233,4.233,0,0,0-5.986-5.986L47.571,63.776c.2-1.331.376-2.613.531-3.888a4.443,4.443,0,0,0-1.282-3.716,4.492,4.492,0,0,0-2.8-1.315,4.443,4.443,0,0,0-4.827,3.879,119.8,119.8,0,0,1-3.585,17.4A10.83,10.83,0,0,0,38.334,86.75Zm2.295-24.248a.939.939,0,0,0,1.119-.171L62.688,51.28a2.589,2.589,0,0,1,1.748-.711,2.279,2.279,0,0,1,1.633.678,2.319,2.319,0,0,1,0,3.267l-9.417,9.319a.964.964,0,0,0,0,1.364,1,1,0,0,0,1.364,0l1.062-1.062a2.091,2.091,0,0,1,2.907-.122,2.066,2.066,0,0,1,.082,2.981L59.911,69.15a.964.964,0,0,0,1.364,1.364l1.127-1.16a1.919,1.919,0,0,1,2.654-.114,1.878,1.878,0,0,1,.629,1.356,1.911,1.911,0,0,1-.555,1.388l-2.123,2.123a.972.972,0,0,0,.686,1.633h0a.964.964,0,0,0,.678-.286l1.315-1.307a1.691,1.691,0,0,1,2.254-.155,1.71,1.71,0,0,1,.106,2.466L54.161,90.343a6.771,6.771,0,0,1-9.555,0l-4.9-4.9A8.9,8.9,0,0,1,37.4,76.7a119.344,119.344,0,0,0,3.634-17.665,2.524,2.524,0,0,1,2.54-2.205h.27a2.524,2.524,0,0,1,2.262,2.818c-.294,2.352-.645,4.631-1.045,6.779A.956.956,0,0,0,45.562,67.459Z" transform="translate(0 -0.985)" fill="#f18a00"/><path d="M54.073,52.328a1.045,1.045,0,0,0,1.045-1.045v-6.86a1.054,1.054,0,1,0-2.1,0v6.86a1.045,1.045,0,0,0,1.054,1.045Z" transform="translate(-3.268 0)" fill="#f18a00"/><path d="M57.835,54.6a1.037,1.037,0,0,0,.735-.3l4.851-4.851a1.057,1.057,0,1,0-1.478-1.511l-4.851,4.9a1.045,1.045,0,0,0,.743,1.78Z" transform="translate(-3.96 -0.798)" fill="#f18a00"/><path d="M48.473,54.3a1.062,1.062,0,0,0,1.486,0h0a1.062,1.062,0,0,0,0-1.478l-4.9-4.859a1.078,1.078,0,0,0-1.478,0,1.054,1.054,0,0,0,0,1.486Z" transform="translate(-1.482 -0.805)" fill="#f18a00"/></g></svg>