<svg xmlns="http://www.w3.org/2000/svg" width="65.279" height="50" viewBox="0 0 65.279 50"><g transform="translate(-29.12 -46.47)"><path d="M93.538,58.531H84.2V57.5a.86.86,0,0,0-.542-.8L77.787,54.35a3.441,3.441,0,0,0-3.347-2.8h-4.3a5.945,5.945,0,0,0-5.85-5.084H40.14A11.038,11.038,0,0,0,29.12,57.5V61.31a11.029,11.029,0,0,0,9.85,10.951L34.247,86.439a.765.765,0,0,0,0,.275v8.9a.86.86,0,0,0,.86.86H54.12a.86.86,0,0,0,.86-.86V90.525a4.663,4.663,0,0,0-2.064-3.871h-.052a3.13,3.13,0,0,0-.336-.2,4.628,4.628,0,0,0-2.22-.568A2.8,2.8,0,0,1,47.651,82.2l.731-2.211h3.192a4.68,4.68,0,0,0,4.671-4.671V72.33h8.044a5.945,5.945,0,0,0,5.876-5.084h4.3a3.441,3.441,0,0,0,3.347-2.8L83.68,62.1a.86.86,0,0,0,.542-.791V60.278h9.317a.873.873,0,0,0,0-1.746ZM53.294,94.749H35.9V87.575h14.41a2.968,2.968,0,0,1,2.951,2.951Zm-17.042-8.9L40.76,72.33h8.353l-3.1,9.291a4.482,4.482,0,0,0,.619,4.078l.129.155ZM54.524,75.315a2.959,2.959,0,0,1-2.951,2.951H48.993l1.97-5.9h3.6Zm9.764-4.706H40.14a9.308,9.308,0,0,1-9.3-9.3V57.5a9.317,9.317,0,0,1,9.3-9.308H64.289a4.224,4.224,0,0,1,4.224,4.224h0V66.386h0a4.224,4.224,0,0,1-4.224,4.224ZM74.44,65.525H70.225V53.275H74.44a1.721,1.721,0,0,1,1.721,1.678h0v8.9h0A1.721,1.721,0,0,1,74.44,65.525Zm8.035-4.835-4.628,1.85V56.226l4.628,1.884Z" transform="translate(0 0)" fill="#c6c6c6"/><path d="M54.5,56.06H41.79a.86.86,0,0,0-.86.86h0a.86.86,0,0,0,.86.86H54.5a.861.861,0,1,0,0-1.721Z" transform="translate(-1.65 -1.34)" fill="#c6c6c6"/><path d="M54.5,63.44H41.79a.867.867,0,0,0-.86.86h0a.86.86,0,0,0,.86.86H54.5a.86.86,0,1,0,0-1.721Z" transform="translate(-1.65 -2.371)" fill="#c6c6c6"/></g></svg>