<svg xmlns="http://www.w3.org/2000/svg" width="49.999" height="50" viewBox="0 0 49.999 50"><g transform="translate(-28.816 -43.998)"><path d="M80.095,49.9a.975.975,0,0,0-.826.273L74,55.45l-3.536-3.519,5.279-5.271a.958.958,0,0,0-.264-1.553,11.3,11.3,0,0,0-15.8,13.127,13.128,13.128,0,0,0,.587,1.652L46.942,73.212a.967.967,0,0,0,1.38,1.355l13.8-13.8a.967.967,0,0,0,.173-1.124,10.253,10.253,0,0,1-.744-1.917A9.377,9.377,0,0,1,73.329,46.338l-4.957,4.907a.975.975,0,0,0,0,1.371L73.254,57.5a1.008,1.008,0,0,0,.686.281h0a.975.975,0,0,0,.686-.289l4.907-4.907A9.377,9.377,0,0,1,68.182,64.364a10.038,10.038,0,0,1-1.917-.744.967.967,0,0,0-1.148.207L52.089,76.847a.967.967,0,0,0,.686,1.652.934.934,0,0,0,.677-.281L66.017,65.645a13.126,13.126,0,0,0,1.652.587,11.31,11.31,0,0,0,13.144-15.8.975.975,0,0,0-.719-.537Z" transform="translate(-3.103)" fill="#c6c6c6"/><path d="M50.026,81.529,34.181,97.366a1.437,1.437,0,0,1-2.032,0l-.983-.983a1.437,1.437,0,0,1,0-2.032L47,78.514a.967.967,0,0,0-1.363-1.363L29.794,92.98a3.4,3.4,0,0,0,0,4.775l.983.983a3.381,3.381,0,0,0,4.775-.008L51.39,82.9a.967.967,0,0,0-1.363-1.371Z" transform="translate(0 -5.723)" fill="#c6c6c6"/></g></svg>