<svg xmlns="http://www.w3.org/2000/svg" width="54.633" height="50" viewBox="0 0 54.633 50"><g transform="translate(-25.922 -43.462)"><path d="M74.231,76.806l-6.887,3.669a3.907,3.907,0,0,0-.565-.762,4.2,4.2,0,0,0-3.047-1.31H53.511a3.145,3.145,0,0,1-1.638-.459,13.7,13.7,0,0,0-7.051-1.638c-6.167,0-10.851,4.046-12.637,5.839L30.9,80.811a1.048,1.048,0,0,0-1.482,0l-3.186,3.145a1.051,1.051,0,1,0,1.482,1.491l2.408-2.408,12.17,12.17-2.383,2.408A1.048,1.048,0,1,0,41.39,99.1l3.153-3.145h0a2.531,2.531,0,0,1,1.794-.737H58.163a9.5,9.5,0,0,0,5.028-1.45L78.53,84.12a4.242,4.242,0,0,0,.958-6.429A4.365,4.365,0,0,0,74.231,76.806ZM78.4,80.836a2.113,2.113,0,0,1-.991,1.5L62.069,91.982A7.322,7.322,0,0,1,58.163,93.1H46.312a4.562,4.562,0,0,0-2.457.713L33.684,83.628c1.564-1.556,5.8-5.225,11.146-5.225a11.646,11.646,0,0,1,5.978,1.351,5.29,5.29,0,0,0,2.7.745H63.732a2.1,2.1,0,0,1,2.1,2.219A2.228,2.228,0,0,1,63.551,84.7H50.08a1.056,1.056,0,0,0,0,2.1H63.551a4.3,4.3,0,0,0,4.373-3.98v-.27l7.289-3.89a2.252,2.252,0,0,1,2.694.426,2.137,2.137,0,0,1,.491,1.744Z" transform="translate(0 -5.944)" fill="#c6c6c6"/><path d="M59.013,52.5a2.121,2.121,0,0,0-3,3l8.476,8.476a2.113,2.113,0,0,0,3,0L84.441,47.023a2.121,2.121,0,0,0-3-3L65.99,59.463Z" transform="translate(-5.346)" fill="#c6c6c6"/></g></svg>