<svg xmlns="http://www.w3.org/2000/svg" width="51.474" height="50" viewBox="0 0 51.474 50"><g transform="translate(-31.154 -43.731)"><path d="M86.584,49.595a.979.979,0,0,0-.823.271l-5.248,5.248-3.5-3.5,5.248-5.248a.979.979,0,0,0,.271-.823A1,1,0,0,0,82,44.841,11.26,11.26,0,0,0,66.26,57.935a11.408,11.408,0,0,0,.576,1.645L63.85,62.574a.963.963,0,0,0,1.365,1.357L68.678,60.4a.946.946,0,0,0,.181-1.1,10.207,10.207,0,0,1-.74-1.908A9.336,9.336,0,0,1,79.839,46.05l-4.886,4.886a.971.971,0,0,0-.288.683.938.938,0,0,0,.288.674l4.853,4.861a.971.971,0,0,0,.683.288h0a.971.971,0,0,0,.683-.288l4.886-4.886A9.327,9.327,0,0,1,74.723,64a10.075,10.075,0,0,1-1.916-.74.946.946,0,0,0-1.119.173L68.217,66.9a.963.963,0,1,0,1.365,1.357l2.986-2.986A11.256,11.256,0,0,0,87.283,50.129a.954.954,0,0,0-.7-.535Z" transform="translate(-5.753)" fill="#c6c6c6"/><path d="M54.344,81.217,38.568,96.985a1.431,1.431,0,0,1-2.023,0l-.979-.979a1.439,1.439,0,0,1,0-2.032L51.334,78.215a.963.963,0,0,0-1.357-1.365L34.209,92.617a3.364,3.364,0,0,0,0,4.746l.979.987a3.356,3.356,0,0,0,4.746,0L55.7,82.583a.963.963,0,0,0-1.357-1.365Z" transform="translate(-0.368 -5.828)" fill="#c6c6c6"/><path d="M72.046,77.752l.592-3.381a.971.971,0,0,0-.551-1.045l-4.4-1.99a.954.954,0,0,0-1.069.2l-1.645,1.645L46.441,54.6l-.461-3.167a.954.954,0,0,0-.411-.658l-9.508-6.44a.946.946,0,0,0-1.217.115l-3.405,3.405a.946.946,0,0,0-.115,1.217l6.424,9.508a.954.954,0,0,0,.658.411l3.183.452,18.54,18.54-1.645,1.645a.954.954,0,0,0-.2,1.069l1.99,4.4a.971.971,0,0,0,1.045.551l3.43-.592,7.485,7.485a4.31,4.31,0,0,0,6.1,0l1.217-1.226a4.318,4.318,0,0,0,0-6.111ZM42.723,57.864a.93.93,0,0,0-.543-.271l-3.084-.4-5.758-8.5,2.287-2.287,8.5,5.758.444,3.084a.979.979,0,0,0,.271.543L63.615,74.462,61.46,76.625ZM78.174,89.942l-1.226,1.234a2.41,2.41,0,0,1-3.389,0l-7.839-7.847a.962.962,0,0,0-.674-.28h-.173l-3.142.551-1.407-3.109L67.506,73.3l3.109,1.415-.551,3.142a.987.987,0,0,0,.271.823l7.839,7.839a2.4,2.4,0,0,1,0,3.43Z" transform="translate(0 -0.077)" fill="#c6c6c6"/></g></svg>