<svg xmlns="http://www.w3.org/2000/svg" width="202" height="40.881" viewBox="0 0 202 40.881"><g transform="translate(-792 -241)"><path d="M364.515,295.894a1.417,1.417,0,0,0,1.723-.528l15.076-21.834a1.407,1.407,0,0,0,.105-1.481,1.465,1.465,0,0,0-1.265-.774l-9.349-.07,2.706-14.37a1.442,1.442,0,0,0-.808-1.584,1.418,1.418,0,0,0-1.721.422l-15.991,20.18a1.4,1.4,0,0,0-.175,1.515,1.444,1.444,0,0,0,1.3.81l10.332.071-2.777,16.06a1.384,1.384,0,0,0,.843,1.584Zm-5.447-20.567,10.543-13.312L367.643,272.4a1.5,1.5,0,0,0,.316,1.2,1.48,1.48,0,0,0,1.089.528l8.329.034-9.8,14.229,1.934-11.339a1.391,1.391,0,0,0-.317-1.162,1.311,1.311,0,0,0-1.054-.493Zm0,0" transform="translate(506.537 -14.12)" fill="#adbf00"/><g transform="translate(792 245.563)"><path d="M228.741,289.555h-6.974q-.042-.533-.034-.861c.015-.617.075-1.347.173-2.189a6.707,6.707,0,0,1-5.943,3.468,5.551,5.551,0,0,1-4.08-1.515,4.937,4.937,0,0,1-1.483-3.8,6.071,6.071,0,0,1,.925-3.118,6.3,6.3,0,0,1,2.453-2.252,10.379,10.379,0,0,1,3.209-1.11c1.083-.175,3.211-.418,6.371-.717a3.78,3.78,0,0,0,.236-1.06c.024-1.01-.645-1.522-2.008-1.522a3.227,3.227,0,0,0-3.021,2.071l-5.776-1.229q2.329-5.136,9.834-5.133a11.038,11.038,0,0,1,5.935,1.359,4.328,4.328,0,0,1,2.08,4.011q-.028,1.188-1.473,8.407a26.224,26.224,0,0,0-.567,3.562,8.444,8.444,0,0,0,.142,1.628Zm-6.077-8.77q-4.865.384-4.936,3.212a1.346,1.346,0,0,0,1.537,1.553,3.055,3.055,0,0,0,2.035-.929q1.026-.935,1.364-3.836Zm18.858-16.173H234.74l-4.624,24.943H236.9l4.624-24.943Zm13.739,20.321-.852,4.622H238.446l.768-4.148,9.1-9.83h-6.679l.83-4.478h15.366l-.67,3.561-9.584,10.273Zm19,4.622a8.481,8.481,0,0,1-.142-1.628,26.218,26.218,0,0,1,.568-3.562q1.439-7.222,1.474-8.407a4.331,4.331,0,0,0-2.08-4.011,11.041,11.041,0,0,0-5.935-1.359q-7.506,0-9.834,5.133l5.776,1.229a3.227,3.227,0,0,1,3.022-2.071c1.362,0,2.031.512,2.007,1.522a3.781,3.781,0,0,1-.236,1.06c-3.16.3-5.288.542-6.371.717a10.379,10.379,0,0,0-3.209,1.11,6.307,6.307,0,0,0-2.453,2.252,6.071,6.071,0,0,0-.925,3.118,4.937,4.937,0,0,0,1.483,3.8,5.551,5.551,0,0,0,4.08,1.515,6.708,6.708,0,0,0,5.943-3.468c-.1.842-.158,1.572-.173,2.189q-.007.328.034.861Zm-6.077-8.77q-.341,2.9-1.364,3.836a3.056,3.056,0,0,1-2.036.929A1.346,1.346,0,0,1,263.246,284Q263.314,281.171,268.182,280.785Z" transform="translate(-210.398 -264.612)" fill="#161615"/></g><g transform="translate(889.44 251.499)"><path d="M428.863,277.077a5.711,5.711,0,0,0-2.689.649,7.212,7.212,0,0,0-2.508,2.826l.492-2.963H417.6l-4.071,24.321h7l1.332-8.041a4.962,4.962,0,0,0,4.594,2.6,7.315,7.315,0,0,0,6.33-3.549,13.957,13.957,0,0,0,2.39-7.959,8.873,8.873,0,0,0-1.73-5.751A5.627,5.627,0,0,0,428.863,277.077Zm-1.438,10.791a9.359,9.359,0,0,1-1.114,3.225,1.984,1.984,0,0,1-1.712.917,1.712,1.712,0,0,1-1.413-.624,2.462,2.462,0,0,1-.5-1.61,41.419,41.419,0,0,1,.8-5.558q.672-2.5,2.409-2.5,2.007,0,2,2.726A18.807,18.807,0,0,1,427.425,287.868Z" transform="translate(-413.526 -277.021)" fill="#adbf00"/><path d="M471.168,277.194a10.337,10.337,0,0,0-7.669,3.069,10.685,10.685,0,0,0-3.037,7.841,7.9,7.9,0,0,0,2.621,6.257,9.452,9.452,0,0,0,6.461,2.3,10.888,10.888,0,0,0,7.637-2.945,10.575,10.575,0,0,0,3.2-8.184,7.937,7.937,0,0,0-2.49-5.932A9.275,9.275,0,0,0,471.168,277.194Zm1.27,12.113c-.454,1.9-1.326,2.851-2.6,2.851q-2.147,0-2.147-2.869a20.788,20.788,0,0,1,.716-4.76q.728-2.909,2.6-2.913c1.407,0,2.117.973,2.117,2.919A21.212,21.212,0,0,1,472.438,289.307Z" transform="translate(-437.947 -277.081)" fill="#adbf00"/><path d="M526.358,278.141l-4.065,9.3-.909-9.3h-5.347l-3.921,9.3-1.108-9.3h-6.841L507.23,296.6h5l4.357-10.579,1,10.579h5.2l8.466-18.458Z" transform="translate(-460.686 -277.573)" fill="#adbf00"/><path d="M568.172,277.194a10.555,10.555,0,0,0-10.943,10.71,8.258,8.258,0,0,0,2.558,6.4,9.519,9.519,0,0,0,6.685,2.352,11.086,11.086,0,0,0,5.976-1.672,9.787,9.787,0,0,0,3.891-4.379l-6.2-1a3.25,3.25,0,0,1-3.175,2.32,2.881,2.881,0,0,1-1.96-.673,2.373,2.373,0,0,1-.772-1.884c0-.243.031-.617.087-1.116H577.01a12.512,12.512,0,0,0,.205-2.1,8.813,8.813,0,0,0-2.452-6.506A8.936,8.936,0,0,0,568.172,277.194Zm2.2,7.491h-5.508a3.982,3.982,0,0,1,1.17-2.439,3.015,3.015,0,0,1,2.116-.886,2.109,2.109,0,0,1,1.705.73,2.607,2.607,0,0,1,.61,1.715A5.76,5.76,0,0,1,570.375,284.685Z" transform="translate(-488.294 -277.081)" fill="#adbf00"/><path d="M614.14,276.96q-3.94,0-5.851,4.99l.728-4.423h-6.144l-3.081,18.458h7l1.257-7.547a7.049,7.049,0,0,1,1.519-3.793,4.586,4.586,0,0,1,3.349-1.067c.205,0,.628.019,1.257.056l.822-6.581A5.479,5.479,0,0,0,614.14,276.96Z" transform="translate(-510.439 -276.96)" fill="#adbf00"/></g></g></svg>